<?xml version="1.0" encoding="UTF-8"?>
<svg width="286px" height="474px" viewBox="0 0 286 474" version="1.1" xmlns="http://www.w3.org/2000/svg" xmlns:xlink="http://www.w3.org/1999/xlink">
    <!-- Generator: Sketch 55.1 (78136) - https://sketchapp.com -->
    <title>guy</title>
    <desc>Created with Sketch.</desc>
    <g id="Page-1" stroke="none" stroke-width="1" fill="none" fill-rule="evenodd">
        <g id="guy" transform="translate(-1.000000, 0.000000)">
            <path d="M105.78,345.38 C105.78,335.57 103.16,326.98 99.16,321.75 L101.23,316.36 L87.85,316.61 C79.97,318.44 77.5,330.61 77.27,345.61 C77.27,348.9 77.97,352.82 82.09,352.780304" id="Path" fill="#431113" fill-rule="nonzero"></path>
            <path d="M108.38,346.43 C108.38,338.02 105.76,330.57 101.74,326.01 L103.8,321.29 L90.4,321.51 C82.58,323.1 80.3,333.65 80.3,346.43 C80.3,349.21 81.09,352.51 85.11,352.51" id="Path" fill="#431113" fill-rule="nonzero"></path>
            <path d="M110.38,345.49 C110.38,335.74 107.76,327.12 103.74,321.83 L105.8,316.36 L92.4,316.61 C84.58,318.46 82.31,330.68 82.31,345.49 C82.31,360.3 84.58,372.49 92.4,374.37 L105.8,374.62 L103.74,369.15 C107.76,363.86 110.38,355.24 110.38,345.49 Z" id="Path" fill="#431113" fill-rule="nonzero"></path>
            <path d="M116.7,345.49 C116.7,361.58 114.6,374.62 105.8,374.62 C97,374.62 93.65,361.62 93.65,345.49 C93.65,329.36 97.01,316.36 105.8,316.36 C114.59,316.36 116.7,329.43 116.7,345.49 Z" id="Path" fill="#000000" fill-rule="nonzero"></path>
            <path d="M112.21,273.91 L68.57,300.91 C68.57,300.91 37.92,269.14 38.0098022,269.159991" id="Path" stroke="#FDD6B0" stroke-width="10.9170687" stroke-linecap="round" stroke-linejoin="round"></path>
            <path d="M23.18,241.23 C31.79,246.57 35.36,247.69 41.63,245.91 C47.2117454,252.375444 47.0267339,262.007444 41.2008207,268.25377 C35.3749075,274.500095 25.7791125,275.35471 18.9410367,270.236256 C12.102961,265.117802 10.2186852,255.670096 14.57,248.32 C17.14,248.51 21.01,239.88 23.18,241.23 Z" id="Path" fill="#F3865C" fill-rule="nonzero"></path>
            <path d="M22.22,272.55 C23.8054855,272.741488 25.4018927,272.292998 26.6556924,271.303847 C27.9094921,270.314697 28.7172192,268.866513 28.9,267.28 L28.9,267.28 C29.0913706,265.692965 28.6415335,264.095177 27.6502826,262.841094 C26.6590317,261.587011 25.2083273,260.780327 23.62,260.6 L11.62,259.19 C8.35350196,258.831888 5.40666385,261.167959 5.01,264.43 L5.01,264.43 C4.8186294,266.017035 5.26846648,267.614823 6.25971737,268.868906 C7.25096826,270.122989 8.70167275,270.929673 10.29,271.11 L22.22,272.55 Z" id="Path" fill="#F3865C" fill-rule="nonzero"></path>
            <path d="M33.77,254.31 C33.9118667,255.902155 34.6831815,257.371885 35.9128459,258.393164 C37.1425103,259.414442 38.7288601,259.902834 40.32,259.75 L40.32,259.75 C41.9121552,259.608133 43.381885,258.836819 44.4031635,257.607154 C45.424442,256.37749 45.9128337,254.79114 45.76,253.2 L44.65,241.2 C44.5081333,239.607845 43.7368185,238.138115 42.5071541,237.116836 C41.2774897,236.095558 39.6911399,235.607166 38.1,235.76 L38.1,235.76 C36.5078448,235.901867 35.038115,236.673181 34.0168365,237.902846 C32.995558,239.13251 32.5071663,240.71886 32.66,242.31 L33.77,254.31 Z" id="Path" fill="#F3865C" fill-rule="nonzero"></path>
            <path d="M16.17,261.43 C17.6641664,261.996177 19.3224486,261.942988 20.7772606,261.282221 C22.2320726,260.621455 23.3632326,259.407698 23.92,257.91 L23.92,257.91 C24.4861773,256.415834 24.4329877,254.757551 23.7722215,253.302739 C23.1114553,251.847927 21.8976982,250.716767 20.4,250.16 L9.13,245.93 C7.6358336,245.363823 5.97755142,245.417012 4.5227394,246.077779 C3.06792739,246.738545 1.93676742,247.952302 1.38,249.45 L1.38,249.45 C0.813822659,250.944166 0.867012288,252.602449 1.52777852,254.057261 C2.18854475,255.512073 3.40230175,256.643233 4.9,257.2 L16.17,261.43 Z" id="Path" fill="#F3865C" fill-rule="nonzero"></path>
            <path d="M21.21,253.79 C22.6144127,254.554657 24.2659596,254.727063 25.7980187,254.268948 C27.3300777,253.810832 28.6158822,252.7601 29.37,251.35 L29.37,251.35 C30.95,248.42 39.17,249.04 36.24,247.46 L16.33,237.46 C14.9265358,236.698531 13.2774399,236.527886 11.7477919,236.985842 C10.2181439,237.443798 8.93412733,238.492577 8.18,239.9 L8.18,239.9 C7.41534323,241.304413 7.24293667,242.95596 7.70105237,244.488019 C8.15916807,246.020078 9.20990028,247.305882 10.62,248.06 L21.21,253.79 Z" id="Path" fill="#F3865C" fill-rule="nonzero"></path>
            <path d="M149.32,309.24 L167.13,309.24" id="Path"></path>
            <path d="M146,310.36 L164.16,310.72" id="Path" stroke="#7D7D7D" stroke-width="3.82097405" stroke-linecap="round"></path>
            <path d="M155.25,290.53 L155.25,312.5" id="Path" stroke="#A51D38" stroke-width="6.0043878" stroke-linecap="round" stroke-linejoin="round"></path>
            <path d="M158.22,294.1 L158.22,298.07" id="Path" stroke="#FFFFFF" stroke-width="3.27512062" stroke-linecap="round"></path>
            <path d="M171.23,344.31 C171.23,352.58 165.36,359.31 158.11,359.31 L118.01,359.31 C110.76,359.31 104.89,352.6 104.89,344.31 L104.89,294.87 C104.89,286.6 110.76,279.87 118.01,279.87 L158.11,279.87 C165.36,279.87 171.23,286.58 171.23,294.87 L171.23,344.31 Z" id="Path" fill="#88371D" fill-rule="nonzero"></path>
            <path d="M104.869863,318.17 L104.869863,274.17 C104.85403,270.67559 106.231687,267.318966 108.697937,264.843331 C111.164187,262.367697 114.515554,260.977302 118.01,260.979996 L158.11,260.979996 C161.594027,260.982649 164.934159,262.369901 167.394924,264.836293 C169.855689,267.302685 171.235308,270.645976 171.230015,274.13 L171.230015,318.13" id="Path" fill="#FDD6B0" fill-rule="nonzero"></path>
            <path d="M158.11,260.979939 L133.69,260.979939 C130.31,275.11 129.3,295.11 104.69,315.84 L107.04,323.76 L171.280096,318.16 L171.280096,274.16 C171.293337,270.66211 169.910391,267.303489 167.43793,264.829151 C164.965469,262.354812 161.6079,260.969318 158.11,260.979939 L158.11,260.979939 Z" id="Path" fill="#F6C092" fill-rule="nonzero"></path>
            <path d="M125.53,344.429183 C123.53551,344.400612 121.611056,345.164846 120.180107,346.554536 C118.749157,347.944226 117.928961,349.845503 117.9,351.84 L116.7,444.59 L103.82,448.28 L103.21,448.48 C98.1217578,450.457451 95.5357136,456.129076 97.3794964,461.267265 C99.2232792,466.405454 104.825375,469.138855 110.01,467.43 L128.93,460.67 L129.42,460.5 C133.120431,459.148367 135.538439,455.577775 135.42,451.64 L132.91,351.72 C132.782973,347.712818 129.538439,344.507852 125.53,344.429183 Z" id="Path" fill="#88371D" fill-rule="nonzero"></path>
            <path d="M179.54,454.29 L165.45,447.43 L157.45,355.34 C157.132436,351.197864 153.517136,348.097436 149.375,348.415 C145.232864,348.732564 142.132436,352.347864 142.45,356.49 L147.15,454.32 C147.334978,457.389518 149.052723,460.159709 151.72,461.69 L152.16,461.94 L170.16,472.11 L170.72,472.4 C175.7237,474.835576 181.754424,472.7537 184.19,467.75 C186.625576,462.7463 184.5437,456.715576 179.54,454.28 L179.54,454.29 Z" id="Path" fill="#88371D" fill-rule="nonzero"></path>
            <rect id="Rectangle" fill="#431113" fill-rule="nonzero" transform="translate(137.938488, 325.177830) rotate(-0.110000) translate(-137.938488, -325.177830) " x="104.688488" y="315.94283" width="66.5" height="18.47"></rect>
            <path d="M149.55,246.53 C133.37,244.42 127.05,228.23 129.41,210.12 C131.77,192.01 141.92,178.82 158.1,180.94 C174.28,183.06 185.48,199.45 183.1,217.57 C180.72,235.69 165.72,248.64 149.55,246.53 Z" id="Path" fill="#000000" fill-rule="nonzero"></path>
            <polygon id="Path" fill="#A32922" fill-rule="nonzero" points="32.59 93.28 102.02 119.86 90.59 139.17 28.51 107.29"></polygon>
            <path d="M100.11,68.2 C96.95,63.11 94.64,59.63 92.84,56.65 C79.01,62.21 67.01,75.95 59.54,92.43 C49.64,114.23 67.38,144.23 70.77,132.91 C74.25,121.28 71.19,131.86 81.09,110.06 C86.02,99.19 97.21,85.31 104.78,74.06 C103.022963,72.2751117 101.457753,70.3110586 100.11,68.2 L100.11,68.2 Z" id="Path" fill="#000000" fill-rule="nonzero"></path>
            <path d="M182.01,194.34 C161.8,185.56 160.75,200.93 176.01,159.47 C191.27,118.01 213.86,89.27 234.53,96.88 C255.2,104.49 246.33,163.36 231.09,204.81 C215.85,246.26 215.33,208.82 182.01,194.34 Z" id="Path" fill="#000000" fill-rule="nonzero"></path>
            <path d="M204.82,241.09 C186.92,242.47 175.82,229.46 173.53,213.01 C171.24,196.56 178.6,182.88 196.53,181.5 C214.46,180.12 230.8,192.34 233.1,208.8 C235.4,225.26 222.72,239.71 204.82,241.09 Z" id="Path" fill="#000000" fill-rule="nonzero"></path>
            <path d="M176.58,246.43 C160.4,244.32 154.08,228.13 156.44,210.02 C158.8,191.91 168.95,178.72 185.13,180.84 C201.31,182.96 212.51,199.35 210.13,217.47 C208.38,231.02 197.01,249.13 176.58,246.43 Z" id="Path" fill="#000000" fill-rule="nonzero"></path>
            <path d="M99.54,241.65 C83.36,239.54 77.04,223.35 79.4,205.24 C81.76,187.13 91.91,173.94 108.09,176.06 C124.27,178.18 135.47,194.57 133.09,212.69 C130.71,230.81 115.72,243.77 99.54,241.65 Z" id="Path" fill="#000000" fill-rule="nonzero"></path>
            <path d="M126.06,245.67 C109.88,243.56 103.56,227.37 105.92,209.26 C108.28,191.15 118.43,177.96 134.61,180.08 C150.79,182.2 161.98,198.59 159.61,216.71 C157.24,234.83 142.24,247.78 126.06,245.67 Z" id="Path" fill="#000000" fill-rule="nonzero"></path>
            <path d="M147.27,233.69 C140.83,237.05 134.81,234.52 127.94,236.21 L126.87,257.52 C126.87,260.93 127.53,267.26 133.87,267.26 C140.21,267.26 149.75,260.93 149.75,257.52 L149.75,237.52 C149.614722,235.909317 148.684335,234.472469 147.27,233.69 Z" id="Path" fill="#D8582A" fill-rule="nonzero"></path>
            <path d="M215.85,163.84 C204.68,211.79 175.24,244.14 118.62,235.55 C60.27,226.7 48.74,184.05 58.24,133.78 C68.01,82.08 95.99,43.08 156.73,55.26 C215.58,67.08 227.33,114.6 215.85,163.84 Z" id="Path" fill="#D8582A" fill-rule="nonzero"></path>
            <path d="M189.751701,179.642909 C172.277945,237.394894 135.820565,250.797475 90.7026487,225.442945 C44.1681706,199.289516 44.2869242,151.639398 63.5589502,102.454553 C83.2890261,52.1134067 115.081083,20.2835904 162.378978,50.3894669 C208.192451,79.4967197 206.10578,125.580575 189.751701,179.642909 Z" id="Path" fill="#F3865C" fill-rule="nonzero"></path>
            <path d="M225.83,112.69 C220.52,124.69 205.35,129.75 191.96,123.96 C178.57,118.17 172.01,103.74 177.32,91.73 C182.63,79.72 197.8,74.68 211.19,80.46 C224.58,86.24 231.14,100.68 225.83,112.69 Z" id="Path" fill="#000000" fill-rule="nonzero"></path>
            <path d="M182.81,40.74 C169.219356,33.3166149 154.692658,27.7534849 139.62,24.2 C139.678618,20.1913611 138.615255,16.2461813 136.55,12.81 C129.9,1.81 114.67,-1.01 102.55,6.48 L102.11,6.78 C91.23,-2.64 73.88,-1.56 62.11,9.71 C49.62,21.71 48.11,40.54 58.8,51.87 C59.1,52.19 59.43,52.46 59.74,52.76 C55.01,64.62 61.54,78.57 74.66,84.24 C82.4211987,87.7147051 91.3518087,87.4120976 98.86,83.42 C101.892561,87.9710187 106.188497,91.5370628 111.22,93.68 C120.87,97.85 131.42,96.38 138.56,90.75 C141.676215,97.9342951 147.63382,103.50343 155.011618,106.12888 C162.389416,108.75433 170.525864,108.200678 177.48,104.6 C204.28,117.15 230.04,125.29 237.76,112.6 C248.47,95.02 223.88,62.83 182.81,40.74 Z" id="Path" fill="#000000" fill-rule="nonzero"></path>
            <g id="Group" opacity="0.5" transform="translate(36.000000, 97.000000)" fill="#FFFFFF" fill-rule="nonzero">
                <path d="M4.01,5.55 C-3.99,16.96 -3.74,70.03 47.01,64.95 C71.9,62.46 74.37,23.02 74.37,23.02 C74.37,23.02 60.17,10.31 42.28,5.77 C22.4,0.7 10.29,-3.3 4.01,5.55 Z" id="Path"></path>
            </g>
            <g id="Group" opacity="0.5" transform="translate(107.000000, 120.000000)" fill="#FFFFFF" fill-rule="nonzero">
                <path d="M85.52,20.96 C88.87,34.75 61.32,79.83 18.9,56.63 C-11.46,40.03 5.74,0.63 5.74,0.63 C21.9058067,-0.866788826 38.2087719,0.459645867 53.92,4.55 C81.8,11.76 82.81,9.81 85.52,20.96 Z" id="Path"></path>
            </g>
            <path d="M147.7,130.89 C133.7,128.26 120.63,134.55 118.6,144.89 C116.57,155.23 126.33,165.83 140.35,168.46 C154.37,171.09 167.42,164.8 169.45,154.46 C171.48,144.12 161.71,133.52 147.7,130.89 Z" id="Path" fill="#FFFFFF" fill-rule="nonzero"></path>
            <path d="M89.61,117.62 C79.25,112.34 67.9,114.62 63.99,124.05 C60.08,133.48 65.45,145.11 75.79,150.16 C86.13,155.21 97.41,151.8 101.32,142.7 C105.23,133.6 99.85,122.84 89.61,117.62 Z" id="Path" fill="#FFFFFF" fill-rule="nonzero"></path>
            <path d="M237.01,118.07 C233.84,112.98 221.52,96.18 219.72,93.2 C205.91,98.76 195.05,122.27 191.28,137.2 C185.4,160.43 200.65,183.43 218.01,159.97 C225.1,150.37 234.13,135.22 241.7,123.97 C239.933647,122.173637 238.361623,120.196038 237.01,118.07 L237.01,118.07 Z" id="Path" fill="#000000" fill-rule="nonzero"></path>
            <path d="M257.01,101.59 C253.89,104.51 238.89,107.95 238.89,107.95 C238.89,107.95 243.33,93.21 246.45,90.29 C248.468551,88.4036377 251.340131,87.7374509 253.983044,88.5423859 C256.625957,89.3473208 258.638681,91.5010886 259.263044,94.1923859 C259.887406,96.8836831 259.028551,99.7036377 257.01,101.59 L257.01,101.59 Z" id="Path" fill="#000000" fill-rule="nonzero"></path>
            <path d="M254.61,118.43 C250.34,118.43 236.94,110.9 236.94,110.9 C236.94,110.9 250.16,103.01 254.43,102.96 C258.701923,102.910294 262.205294,106.333077 262.255,110.605 C262.304706,114.876923 258.881923,118.380294 254.61,118.43 L254.61,118.43 Z" id="Path" fill="#000000" fill-rule="nonzero"></path>
            <path d="M95.59,194.61 C95.59,194.61 103.74,196.86 111.41,189.99" id="Path" stroke="#000000" stroke-width="3.42132746" stroke-linecap="round"></path>
            <polygon id="Path" fill="#A32922" fill-rule="nonzero" points="194.5 139.52 263.33 163.3 248.83 186.63 189.45 153.21"></polygon>
            <path d="M193.85,205.83 C205.58,213.51 222.74,210.83 231.73,190.83 C241.06,170.1 227.1,160.21 211.42,166.39 C207.325744,180.253047 201.417966,193.514445 193.85,205.83 L193.85,205.83 Z" id="Path" fill="#D8582A" fill-rule="nonzero"></path>
            <path d="M221.39,168.36 C216.03,166.3 208.93,172.36 208.93,172.36 C208.93,172.36 204.82,187.36 195.11,199.71 C195.11,199.71 210.22,210.97 223.11,193.8 C228.89,186.05 230.01,171.7 221.39,168.36 Z" id="Path" fill="#F3865C" fill-rule="nonzero"></path>
            <path d="M123.18,107.6 C123.18,107.6 152.73,99.46 175.9,119.33" id="Path" stroke="#000000" stroke-width="3.42132746" stroke-linecap="round"></path>
            <path d="M69.87,97.53 C69.87,97.53 84.12,83.33 106.73,102.53" id="Path" stroke="#000000" stroke-width="3.42132746" stroke-linecap="round"></path>
            <path d="M46.6,106.85 L46.29,107.32 C46.22,107.43 46.23,107.42 46.23,107.42 L46.23,107.42 L46.23,107.42 L46.17,107.54 C46.17,107.63 46.08,107.69 46.04,107.79 C45.8412679,108.217412 45.6643733,108.654642 45.51,109.1 C45.141601,110.181224 44.850862,111.287369 44.64,112.41 C44.1742306,114.896311 43.9398951,117.420438 43.94,119.95 C43.9011699,125.100922 44.7537415,130.219734 46.46,135.08 C47.2842298,137.400778 48.360674,139.624088 49.67,141.71 C50.9307036,143.714684 52.4430109,145.549617 54.17,147.17 C55.0314729,147.957513 55.9397987,148.692188 56.89,149.37 C57.853079,150.035536 58.8548434,150.643273 59.89,151.19 C62.043441,152.297181 64.3143135,153.15924 66.66,153.76 C71.7625799,154.950718 77.0270649,155.288618 82.24,154.76 L82.37,154.76 L82.23,154.76 L82.34,154.76 L82.62,154.76 L83.18,154.7 C83.41,154.7 83.44,154.7 83.56,154.65 L83.86,154.65 C84.32,154.57 84.86,154.45 85.34,154.32 C86.3270469,154.053244 87.2825414,153.681104 88.19,153.21 C90.1295097,152.175063 91.8671504,150.799855 93.32,149.15 C94.9664614,147.295449 96.3957232,145.258918 97.58,143.08 C98.8610608,140.731298 99.9512387,138.283414 100.84,135.76 C101.769073,133.140984 102.543737,130.469731 103.16,127.76 C103.48,126.4 103.78,125.02 104.03,123.64 C104.16,122.95 104.28,122.26 104.38,121.58 L104.53,120.58 L104.65,119.66 L104.65,119.66 L106.58,124.36 L105.77,123.77 L104.87,123.13 C104.256667,122.703333 103.636667,122.283333 103.01,121.87 C101.76,121.03 100.49,120.21 99.2,119.43 C96.6364909,117.86914 93.9928576,116.443848 91.28,115.16 C88.6365706,113.868965 85.9183986,112.73695 83.14,111.77 C81.77,111.3 80.39,110.87 79.02,110.49 C78.33,110.3 77.65,110.12 76.96,109.96 L74.66,109.43 L65.31,107.26 C62.25,106.56 59.25,105.92 56.45,105.51 C55.05,105.32 53.71,105.16 52.45,105.11 C51.4072696,105.052127 50.3613403,105.105765 49.33,105.27 C48.7123352,105.356715 48.1177341,105.563976 47.58,105.88 C47.1223326,106.192545 46.7286052,106.589667 46.42,107.05 L46.6,106.85 Z M35.25,99.27 L35.3,99.2 C36.6791512,97.2291292 38.4407808,95.5559212 40.48,94.28 C42.4956621,93.0637677 44.7259929,92.2456402 47.05,91.87 C49.0591708,91.5441468 51.097724,91.4368545 53.13,91.55 C54.9530461,91.6490949 56.7691783,91.8494036 58.57,92.15 C62.04,92.72 65.3,93.47 68.49,94.26 L77.91,96.66 L80.29,97.27 C81.15,97.4966667 82,97.7366667 82.84,97.99 C84.5266667,98.5033333 86.1933333,99.0766667 87.84,99.71 C91.066509,100.96099 94.21252,102.410426 97.26,104.05 C100.276691,105.666682 103.207311,107.439073 106.04,109.36 C107.453333,110.32 108.846667,111.32 110.22,112.36 C110.886667,112.88 111.553333,113.41 112.22,113.95 L113.22,114.78 L114.3,115.7 C115.624617,116.831927 116.33954,118.521072 116.23,120.26 L116.23,120.43 L116.23,120.43 L116.12,121.76 L115.99,122.99 C115.9,123.8 115.79,124.6 115.67,125.4 C115.436667,127 115.163333,128.586667 114.85,130.16 C114.220011,133.34137 113.405299,136.483355 112.41,139.57 C111.39692,142.738865 110.132919,145.821958 108.63,148.79 C107.063733,151.906187 105.129968,154.82362 102.87,157.48 C100.455306,160.303465 97.556632,162.673876 94.31,164.48 C92.6328517,165.400786 90.8630042,166.141575 89.03,166.69 C88.1,166.96 87.21,167.19 86.24,167.37 L85.47,167.5 L84.76,167.61 L84.2,167.68 L83.92,167.68 L83.64,167.68 L83.49,167.68 C76.8392098,168.421239 70.1115864,168.056305 63.58,166.6 C60.1864218,165.803179 56.8999091,164.604726 53.79,163.03 C52.2185634,162.218263 50.6989802,161.309853 49.24,160.31 C47.7879659,159.292053 46.4018583,158.183167 45.09,156.99 C42.501203,154.603528 40.2293195,151.894744 38.33,148.93 C36.4759548,146.026429 34.9467676,142.927812 33.77,139.69 C31.4902059,133.358796 30.3295588,126.679153 30.3391567,119.95 C30.3211269,116.562949 30.6190912,113.181556 31.23,109.85 C31.552759,108.09363 32.0005653,106.362558 32.57,104.67 C32.8787332,103.755001 33.2359041,102.857067 33.64,101.98 C33.74,101.75 33.87,101.52 33.98,101.29 L34.16,100.94 L34.4,100.52 L34.65,100.1 L34.86,99.75 L35.17,99.28 L35.25,99.27 Z" id="Shape" fill="#A32922" fill-rule="nonzero"></path>
            <path d="M101.08,153.69 L90.47,150.31 C82.63,147.83 75.11,152.02 74,159.31 C73,166.31 78.2,173.17 85.43,174.98 L95.23,177.47 C101.87,179.13 105.04,174.84 106.79,168.64 C108.63,162.17 108.23,155.94 101.08,153.69 Z" id="Path" fill="#D8582A" fill-rule="nonzero"></path>
            <path d="M146.45,188.87 C138.234839,188.236663 130.261266,185.795076 123.1,181.72 C108.61,173.8 101.35,160.11 102.1,142.15 C102.52185,133.960744 104.309828,125.899633 107.39,118.3 C108.204278,116.430947 109.938627,115.125442 111.96,114.86 C119.338142,114.085334 126.770148,113.961523 134.17,114.49 C143.686087,115.061284 153.125727,116.541355 162.36,118.91 C167.15,120.15 171.22,121.13 174.49,121.91 C190.72,125.84 195.08,126.91 198.15,139.56 C200.06,147.4 195.41,160.02 186.85,170.24 C180.6,177.76 167.01,190.14 146.45,188.87 Z M116.91,126.09 C115.077661,131.533049 114.007507,137.203517 113.73,142.94 C113.25,156.21 118.28,165.83 128.73,171.52 C134.393195,174.768447 140.702966,176.7283 147.21,177.26 C162.66,178.26 173.13,168.61 177.99,162.79 C184.99,154.4 187.68,145.51 186.9,142.32 C185.9,138.06 185.42,137.5 184.82,137.1 C183.12,135.97 178.62,134.88 171.82,133.22 C168.51,132.42 164.39,131.42 159.51,130.16 C150.992911,127.977518 142.286604,126.614646 133.51,126.09 C127.982189,125.740399 122.437811,125.740399 116.91,126.09 Z" id="Shape" fill="#A32922" fill-rule="nonzero"></path>
            <circle id="Oval" fill="#000000" fill-rule="nonzero" transform="translate(143.713380, 149.422510) rotate(-76.140000) translate(-143.713380, -149.422510) " cx="143.71338" cy="149.42251" r="8.13"></circle>
            <circle id="Oval" fill="#000000" fill-rule="nonzero" transform="translate(88.974403, 135.967037) rotate(-76.140000) translate(-88.974403, -135.967037) " cx="88.9744034" cy="135.967037" r="7.58"></circle>
            <polygon id="Path" fill="#F6C092" fill-rule="nonzero" points="127.13 252.36 116.35 269.91 131.96 267.42"></polygon>
            <polyline id="Path" stroke="#F6C092" stroke-width="10.9170687" stroke-linecap="round" stroke-linejoin="round" points="164.58 275.33 198.3 316.33 229.13 287.43"></polyline>
            <path d="M247.59,261.24 C238.1,264.8 238.93,265.41 233.13,262.44 C225.92196,268.037064 224.533406,278.380008 230.01,285.68 C235.56,293.07 242.26,287.98 249.66,282.43 C255.66,277.94 251.12,269.75 248.77,263.04 C246.21,262.74 250.01,260.34 247.59,261.24 Z" id="Path" fill="#F3865C" fill-rule="nonzero"></path>
            <path d="M239.23,273.65 C238.52,276.04 235.36,277.21 232.17,276.27 L232.17,276.27 C228.98,275.32 226.98,272.62 227.68,270.27 L230.25,261.61 C230.96,259.22 234.12,258.04 237.31,258.99 L237.31,258.99 C240.5,259.94 242.5,262.64 241.79,264.99 L239.23,273.65 Z" id="Path" fill="#F3865C" fill-rule="nonzero"></path>
            <path d="M250.74,252.89 C241.6,247.54 239.27,233.95 245.55,222.54 C251.83,211.13 264.32,206.22 273.46,211.54 C282.6,216.86 284.93,230.48 278.65,241.88 C272.37,253.28 259.88,258.24 250.74,252.89 Z" id="Path" fill="#FFFFFF" fill-rule="nonzero" opacity="0.5"></path>
            <path d="M251.31,257.82 C250.385135,257.451033 249.489283,257.013135 248.63,256.51 C237.56,250.03 234.53,233.89 241.88,220.51 C248.63,208.23 261.97,202.27 272.88,206.63 C273.804698,206.999344 274.700522,207.437228 275.56,207.94 C286.63,214.42 289.66,230.56 282.31,243.94 C275.58,256.21 262.24,262.18 251.31,257.82 Z M269.79,214.43 C262.79,211.64 253.94,215.99 249.22,224.56 C244.04,233.98 245.67,245.06 252.86,249.26 C253.357108,249.551415 253.875204,249.805449 254.41,250.02 C261.41,252.82 270.26,248.46 274.98,239.89 C280.16,230.47 278.53,219.39 271.35,215.19 C270.849687,214.898106 270.328231,214.644063 269.79,214.43 Z" id="Shape" fill="#000000" fill-rule="nonzero"></path>
            <polygon id="Path" fill="#000000" fill-rule="nonzero" points="254.75 255.08 234.81 298.87 223.45 292.83 247.57 251.26"></polygon>
            <path d="M246.01,271.54 C244.50305,271.008535 243.270349,269.897913 242.585171,268.454347 C241.899993,267.01078 241.818947,265.353534 242.36,263.85 L242.36,263.85 C242.891465,262.34305 244.002087,261.110349 245.445653,260.425171 C246.88922,259.739993 248.546466,259.658947 250.05,260.2 L256.25,262 C257.75695,262.531465 258.989651,263.642087 259.674829,265.085653 C260.360007,266.52922 260.441053,268.186466 259.9,269.69 L259.9,269.69 C259.368535,271.19695 258.257913,272.429651 256.814347,273.114829 C255.37078,273.800007 253.713534,273.881053 252.21,273.34 L246.01,271.54 Z" id="Path" fill="#F3865C" fill-rule="nonzero"></path>
            <path d="M241.85,281.06 C240.34305,280.528535 239.110349,279.417913 238.425171,277.974347 C237.739993,276.53078 237.658947,274.873534 238.2,273.37 L238.2,273.37 C238.731465,271.86305 239.842087,270.630349 241.285653,269.945171 C242.72922,269.259993 244.386466,269.178947 245.89,269.72 L254.76,272.41 C256.26695,272.941465 257.499651,274.052087 258.184829,275.495653 C258.870007,276.93922 258.951053,278.596466 258.41,280.1 L258.41,280.1 C257.878535,281.60695 256.767913,282.839651 255.324347,283.524829 C253.88078,284.210007 252.223534,284.291053 250.72,283.75 L241.85,281.06 Z" id="Path" fill="#F3865C" fill-rule="nonzero"></path>
            <path d="M238.24,289.31 C236.73305,288.778535 235.500349,287.667913 234.815171,286.224347 C234.129993,284.78078 234.048947,283.123534 234.59,281.62 L234.59,281.62 C235.121465,280.11305 236.232087,278.880349 237.675653,278.195171 C239.11922,277.509993 240.776466,277.428947 242.28,277.97 L248.48,279.77 C249.98695,280.301465 251.219651,281.412087 251.904829,282.855653 C252.590007,284.29922 252.671053,285.956466 252.13,287.46 L252.13,287.46 C251.598535,288.96695 250.487913,290.199651 249.044347,290.884829 C247.60078,291.570007 245.943534,291.651053 244.44,291.11 L238.24,289.31 Z" id="Path" fill="#F3865C" fill-rule="nonzero"></path>
            <path d="M243.75,270.5 C243.96,272.99 240.75,275.5 237.41,275.77 L237.41,275.77 C234.1,276.05 231.25,274.25 231.04,271.77 L230.29,262.77 C230.08,260.28 232.6,258.04 235.91,257.77 L235.91,257.77 C239.22,257.5 242.07,259.29 242.28,261.77 L243.75,270.5 Z" id="Path" fill="#F3865C" fill-rule="nonzero"></path>
            <path d="M100.24,314.35 C110.38,309.23 135.45,295.84 152.16,256.85 L165.55,257.74 C165.55,257.74 156.01,305.43 103.23,325.2 C101.36,318.64 104.69,317.53 100.24,314.35 Z" id="Path" fill="#431113" fill-rule="nonzero"></path>
            <polygon id="Path" fill="#EEAB7B" fill-rule="nonzero" points="149.74 251.47 157.11 270.98 131.96 267.42"></polygon>
            <path d="M132.34,308.2 C124.46,308.2 117.59,310.39 113.93,315.94 L136.93,315.94 L136.93,334.41 L114.01,334.43 C117.69,339.92 124.52,341.29 132.35,341.29 C144.07,341.29 146.45,335.35 146.45,325.14 C146.45,314.93 144.01,308.2 132.34,308.2 Z" id="Path" fill="#F68C1E" fill-rule="nonzero"></path>
        </g>
    </g>
</svg>