<?xml version="1.0" encoding="utf-8"?>
<!-- Generator: Adobe Illustrator 16.0.0, SVG Export Plug-In . SVG Version: 6.00 Build 0)  -->
<!DOCTYPE svg PUBLIC "-//W3C//DTD SVG 1.1//EN" "http://www.w3.org/Graphics/SVG/1.1/DTD/svg11.dtd">
<svg version="1.1" id="Layer_1" xmlns:sketch="http://www.bohemiancoding.com/sketch/ns"
	 xmlns="http://www.w3.org/2000/svg" xmlns:xlink="http://www.w3.org/1999/xlink" x="0px" y="0px" width="237px" height="362px"
	 viewBox="0 0 237 362" enable-background="new 0 0 237 362" xml:space="preserve">
<title>avatar</title>
<desc>Created with Sketch.</desc>
<g id="Paspoort" sketch:type="MSPage">
	<g id="WD-Paspoort-Avatar-Aanpassen" transform="translate(-167.000000, -183.000000)" sketch:type="MSArtboardGroup">
		<g id="avatar" transform="translate(165.000000, 183.000000)" sketch:type="MSLayerGroup">
			<g id="Group-12">
				<g id="Group-3">
					<g id="Clip-2">
					</g>
					<defs>
						<filter id="Adobe_OpacityMaskFilter" filterUnits="userSpaceOnUse" x="110.966" y="232.461" width="65.769" height="129.542">
							<feColorMatrix  type="matrix" values="1 0 0 0 0  0 1 0 0 0  0 0 1 0 0  0 0 0 1 0"/>
						</filter>
					</defs>
					<mask maskUnits="userSpaceOnUse" x="110.966" y="232.461" width="65.769" height="129.542" id="mask-2">
						<g filter="url(#Adobe_OpacityMaskFilter)">
							<path id="path-1" fill="#FFFFFF" d="M0,0.019h238.477V362H0"/>
						</g>
					</mask>
					<path id="Fill-1" sketch:type="MSShapeGroup" mask="url(#mask-2)" fill="#1F5A6F" d="M172.535,347.8l-10.443-5.087l-6.58-87.47
						c4.192-1.871,6.793-4.86,6.793-9.319v-11.049c-12.227-0.902-24.459-1.752-36.729-1.613c-3.115,0.035-6.162-0.248-9.11-0.801
						v13.463c0,5.254,3.623,8.459,9.198,10.208l0.271,84.441l-9.557,2.742c-0.144,0.042-0.31,0.094-0.456,0.145
						c-3.882,1.393-5.908,5.67-4.518,9.56c1.389,3.893,5.665,5.913,9.548,4.521l14.027-5.02l0.365-0.132
						c2.688-0.964,4.568-3.564,4.482-6.573l-2.676-87.998c0.731,0.021,1.475,0.035,2.225,0.035c1.682,0,3.312-0.062,4.895-0.174
						l4.275,90.146c0.135,2.188,1.34,4.311,3.391,5.47l0.324,0.188l13.316,7.547c0.127,0.069,0.275,0.146,0.41,0.217
						c3.712,1.808,8.184,0.263,9.986-3.449C177.789,354.079,176.246,349.604,172.535,347.8"/>
				</g>
				<path id="Fill-4" sketch:type="MSShapeGroup" fill="#F4BF92" d="M149.001,180.906c0,0-0.899,2.882-3.987,5.75
					c-3.087,2.869-6.854,4.734-6.854,4.734s-2.444-2.996-4.219-5.58c-1.771-2.582-1.699-5.584-1.699-5.584
					c-4.713,1.081-8.732,3.206-11.542,5.975c-1.857-0.832-4.079-0.74-5.907,0.453l-29.367,19.229
					c-10.638-11.266-28.348-28.504-29.187-29.321c-2.445-2.379-6.354-2.324-8.73,0.124c-2.377,2.448-2.323,6.36,0.124,8.738
					c0.229,0.221,22.934,22.321,32.225,32.628c1.209,1.339,2.888,2.04,4.587,2.04c1.167,0,2.341-0.33,3.377-1.01l28.648-18.758
					v34.09l45.84,0.629v-39.561C162.307,189.021,156.855,183.452,149.001,180.906"/>
				<path id="Fill-6" sketch:type="MSShapeGroup" opacity="0.3" fill="#FFFFFF" enable-background="new    " d="M148.834,180.906
					c0,0-0.9,2.882-3.986,5.75c-3.088,2.869-6.854,4.734-6.854,4.734s-2.445-2.996-4.219-5.58c-1.771-2.582-1.699-5.584-1.699-5.584
					c-4.708,1.081-8.733,3.206-11.542,5.975c-1.856-0.832-4.08-0.74-5.908,0.453L85.26,205.883
					c-10.638-11.266-28.347-28.504-29.187-29.321c-2.446-2.379-6.354-2.324-8.73,0.124c-2.377,2.448-2.322,6.36,0.125,8.738
					c0.227,0.221,22.933,22.321,32.223,32.628c1.209,1.339,2.889,2.04,4.587,2.04c1.167,0,2.34-0.33,3.377-1.01l28.646-18.758v34.09
					l45.844,0.629v-39.561C162.139,189.021,156.689,183.452,148.834,180.906"/>
				<path id="Fill-8" sketch:type="MSShapeGroup" fill="#F4BF92" d="M206.816,207.824l-42.439-19.27
					c-1.45-0.656-3.014-0.688-4.418-0.24c-2.273-3.266-6.064-5.896-10.797-7.435c0,0-1.159,3.313-4.281,5.896
					c-4.615,3.812-6.725,4.59-6.725,4.59c-3.883,18.166-17.379,28.136-21.69,29.998v6.771l45.841-2.213v-24.735l27.941,12.687
					l-21.26,11.235c-3.016,1.595-4.17,5.332-2.576,8.351c1.107,2.099,3.248,3.295,5.465,3.295c0.973,0,1.959-0.229,2.877-0.716
					l32.395-17.121c2.084-1.102,3.359-3.29,3.289-5.646C210.368,210.911,208.963,208.8,206.816,207.824"/>
				<path id="Fill-10" sketch:type="MSShapeGroup" fill="#EF8657" d="M43.157,186.493c-6.733,2.323-14.071-1.251-16.394-7.986
					c-2.323-6.736,1.251-14.081,7.979-16.405c6.731-2.325,14.072,1.248,16.397,7.983C53.459,176.82,49.887,184.168,43.157,186.493"
					/>
			</g>
			<g id="Group-15" transform="translate(116.270270, 179.153061)">
				<g id="Clip-14">
				</g>
				<defs>
					<filter id="Adobe_OpacityMaskFilter_1_" filterUnits="userSpaceOnUse" x="-14.454" y="45.536" width="74.758" height="13.881">
						<feColorMatrix  type="matrix" values="1 0 0 0 0  0 1 0 0 0  0 0 1 0 0  0 0 0 1 0"/>
					</filter>
				</defs>
				<mask maskUnits="userSpaceOnUse" x="-14.454" y="45.536" width="74.758" height="13.881" id="mask-4">
					<g filter="url(#Adobe_OpacityMaskFilter_1_)">
						<path id="path-3" fill="#FFFFFF" d="M0.196,16.327V66.77c0,8.865,10.26,11.933,22.918,11.933l0,0
							c12.658,0,22.922-3.062,22.922-11.933l0,0v-50.44c0-8.862-10.264-16.047-22.922-16.047l0,0
							C10.456,0.277,0.196,7.462,0.196,16.327L0.196,16.327z"/>
					</g>
				</mask>
				<path id="Fill-13" sketch:type="MSShapeGroup" mask="url(#mask-4)" fill="#491B16" d="M60.304,59.255l-74.739,0.162
					l-0.019-13.721l74.74-0.16L60.304,59.255z"/>
			</g>
			<g id="Group-18" transform="translate(46.138996, 162.530612)">
				<g id="Clip-17">
				</g>
				<defs>
					<filter id="Adobe_OpacityMaskFilter_2_" filterUnits="userSpaceOnUse" x="-0.705" y="0.236" width="22.294" height="27.594">
						<feColorMatrix  type="matrix" values="1 0 0 0 0  0 1 0 0 0  0 0 1 0 0  0 0 0 1 0"/>
					</filter>
				</defs>
				<mask maskUnits="userSpaceOnUse" x="-0.705" y="0.236" width="22.294" height="27.594" id="mask-6">
					<g filter="url(#Adobe_OpacityMaskFilter_2_)">
						<path id="path-5" fill="#FFFFFF" d="M0.64,12.932c0,8.083,5.961,13.55,12.203,12.419l0,0l24.774-3.261
							c2.93-0.531,5.067-4.608,5.067-9.163l0,0c0-4.554-2.137-8.628-5.067-9.158l0,0L12.843,0.51
							c-0.552-0.098-1.098-0.147-1.64-0.147l0,0C5.597,0.364,0.64,5.563,0.64,12.932"/>
					</g>
				</mask>
				<path id="Fill-16" sketch:type="MSShapeGroup" mask="url(#mask-6)" fill="#CDCBCB" d="M21.589,12.932
					c0,8.227-4.992,14.898-11.147,14.898c-6.157,0-11.147-6.672-11.147-14.898c0-8.229,4.961-12.696,11.117-12.696
					C16.568,0.236,21.589,4.703,21.589,12.932"/>
			</g>
			<g id="Group-27" transform="translate(5.536680, 158.836735)" sketch:type="MSShapeGroup">
				<path id="Fill-19" fill="#E7E7E7" d="M58.23,16.911c0,6.874-3.839,12.317-8.576,12.161c-4.736-0.153-8.575-5.854-8.575-12.729
					c0-6.872,3.839-12.317,8.575-12.16C54.391,4.339,58.23,10.038,58.23,16.911"/>
				<path id="Fill-21" fill="#13110D" d="M55.566,16.968c0,4.986-2.647,9.027-5.911,9.027c-3.264,0-5.913-4.042-5.913-9.027
					s2.648-9.025,5.913-9.025C52.918,7.943,55.566,11.983,55.566,16.968"/>
				<path id="Fill-23" fill="#CB2624" d="M55.739,16.968c0,5.943-2.793,11.271-6.622,11.965l-32.364,4.26
					C8.598,34.671,0.81,27.527,0.81,16.968c0-10.559,7.787-17.706,15.943-16.226l32.364,4.259
					C52.946,5.696,55.739,11.023,55.739,16.968"/>
				<path id="Fill-25" fill="#8E1C14" d="M53.403,12.783c-9.032-0.248-18.064-0.536-27.096-0.901
					c-8.179-0.329-16.423-1.323-24.612-0.812c-0.567,1.802-0.885,3.78-0.885,5.897c0,10.56,7.787,17.704,15.943,16.228l32.363-4.263
					c3.831-0.692,6.623-6.021,6.623-11.965c0-1.434-0.163-2.832-0.465-4.136C54.651,12.813,54.027,12.799,53.403,12.783"/>
			</g>
			<g id="Group-30" transform="translate(1.845560, 156.066327)">
				<g id="Clip-29">
				</g>
				<defs>
					<filter id="Adobe_OpacityMaskFilter_3_" filterUnits="userSpaceOnUse" x="-1.844" y="0.913" width="33.714" height="37.832">
						<feColorMatrix  type="matrix" values="1 0 0 0 0  0 1 0 0 0  0 0 1 0 0  0 0 0 1 0"/>
					</filter>
				</defs>
				<mask maskUnits="userSpaceOnUse" x="-1.844" y="0.913" width="33.714" height="37.832" id="mask-8">
					<g filter="url(#Adobe_OpacityMaskFilter_3_)">
						<path id="path-7" fill="#FFFFFF" d="M0.19,19.738c0,12.221,9.017,20.495,18.456,18.78l0,0l37.465-4.931
							c4.431-0.801,7.666-6.969,7.666-13.85l0,0c0-6.881-3.234-13.047-7.666-13.85l0,0l-37.465-4.93
							c-0.833-0.151-1.66-0.225-2.481-0.225l0,0C7.687,0.732,0.19,8.593,0.19,19.738"/>
					</g>
				</mask>
				<path id="Fill-28" sketch:type="MSShapeGroup" mask="url(#mask-8)" fill="#CDCBCB" d="M31.87,19.738
					c0,12.446-7.046,19.007-16.356,19.007c-9.311,0-17.358-6.562-17.358-19.007c0-12.445,6.511-18.825,15.822-18.825
					C23.287,0.913,31.87,7.293,31.87,19.738"/>
			</g>
			<g id="Group-35" transform="translate(1.845560, 156.066327)" sketch:type="MSShapeGroup">
				<path id="Fill-31" fill="#E7E7E7" d="M26.169,20.168c0,10.395-5.806,18.628-12.97,18.391C6.036,38.32,0.231,29.702,0.231,19.308
					S6.036,0.679,13.199,0.918C20.362,1.153,26.169,9.774,26.169,20.168"/>
				<path id="Fill-33" fill="#13110D" d="M22.139,19.738c0,7.542-4.002,13.651-8.94,13.651c-4.937,0-8.94-6.109-8.94-13.651
					c0-7.539,4.003-13.652,8.94-13.652C18.137,6.086,22.139,12.199,22.139,19.738"/>
			</g>
			<g id="Group-38" transform="translate(79.359073, 169.918367)">
				<g id="Clip-37">
				</g>
				<defs>
					<filter id="Adobe_OpacityMaskFilter_4_" filterUnits="userSpaceOnUse" x="-0.565" y="0.958" width="22.294" height="24.959">
						<feColorMatrix  type="matrix" values="1 0 0 0 0  0 1 0 0 0  0 0 1 0 0  0 0 0 1 0"/>
					</filter>
				</defs>
				<mask maskUnits="userSpaceOnUse" x="-0.565" y="0.958" width="22.294" height="24.959" id="mask-10">
					<g filter="url(#Adobe_OpacityMaskFilter_4_)">
						<path id="path-9" fill="#FFFFFF" d="M0.781,13.47c0,8.08,5.962,13.549,12.203,12.42l0,0l24.772-3.262
							c2.933-0.531,5.07-4.607,5.07-9.158l0,0c0-4.55-2.142-8.628-5.07-9.162l0,0L12.984,1.052c-0.551-0.101-1.097-0.15-1.638-0.15
							l0,0C5.739,0.903,0.781,6.1,0.781,13.47"/>
					</g>
				</mask>
				<path id="Fill-36" sketch:type="MSShapeGroup" mask="url(#mask-10)" fill="#CDCBCB" d="M21.729,13.47
					c0,8.229-5.684,12.447-11.841,12.447c-6.155,0-10.453-4.223-10.453-12.447c0-8.229,4.788-12.512,10.944-12.512
					C16.535,0.958,21.729,5.242,21.729,13.47"/>
			</g>
			<g id="Group-52" transform="translate(7.382239, 164.377551)">
				<path id="Fill-39" sketch:type="MSShapeGroup" fill="#E7E7E7" d="M89.745,19.294c0,6.873-3.838,12.318-8.575,12.16
					c-4.737-0.156-8.575-5.855-8.575-12.729c0-6.873,3.838-12.318,8.575-12.162C85.906,6.723,89.745,12.422,89.745,19.294"/>
				<path id="Fill-41" sketch:type="MSShapeGroup" fill="#13110D" d="M87.081,19.353c0,4.985-2.646,9.025-5.912,9.025
					c-3.264,0-5.911-4.04-5.911-9.025c0-4.985,2.647-9.026,5.911-9.026C84.436,10.327,87.081,14.368,87.081,19.353"/>
				<g id="Group-45">
					<g id="Clip-44">
					</g>
					<defs>
						<filter id="Adobe_OpacityMaskFilter_5_" filterUnits="userSpaceOnUse" x="0.159" y="0.134" width="10.634" height="15.602">
							<feColorMatrix  type="matrix" values="1 0 0 0 0  0 1 0 0 0  0 0 1 0 0  0 0 0 1 0"/>
						</filter>
					</defs>
					<mask maskUnits="userSpaceOnUse" x="0.159" y="0.134" width="10.634" height="15.602" id="mask-12">
						<g filter="url(#Adobe_OpacityMaskFilter_5_)">
							<path id="path-11" fill="#FFFFFF" d="M0.159,15.736h10.634V0.133H0.159V15.736"/>
						</g>
					</mask>
					<path id="Fill-43" sketch:type="MSShapeGroup" mask="url(#mask-12)" fill="#775E7E" d="M7.378,7.894
						C7.389,7.885,7.399,7.877,7.41,7.87c0.605-0.422,1.964-1.29,3.383-2.185c-0.547-2.731-1.961-4.973-3.912-5.551
						C6.84,0.137,6.799,0.137,6.757,0.141c-3.936,0.455-6.79,6.193-6.588,11.498c0.061,1.613,0.401,3,0.916,4.097
						C2.084,13.186,4.163,10.424,7.378,7.894"/>
				</g>
				<path id="Fill-46" sketch:type="MSShapeGroup" fill="#491B16" d="M78.661,67.525c-0.172,0-0.346-0.002-0.521-0.006
					c-27.75-0.674-37.529-44.275-37.932-46.131l7.341-1.598c0.024,0.102,2.307,10.41,7.499,20.576
					c6.545,12.812,14.375,19.418,23.273,19.635c16.207,0.371,33.018-26.541,40.869-42.283c0,0,2.938-1.137,4.123-1.472
					c0.218-0.062,0.54-0.146,0.924-0.243l0.299,3.114c-0.177,0.403,1.471,1.717,1.471,1.717
					C119.221,34.49,100.56,67.525,78.661,67.525"/>
				<path id="Fill-48" sketch:type="MSShapeGroup" fill="#CB2624" d="M87.254,19.353c0,5.943-2.792,11.271-6.621,11.965
					l-32.365,4.26c-8.154,1.479-15.942-5.666-15.942-16.225c0-10.558,7.788-17.706,15.942-16.227l32.365,4.259
					C84.462,8.08,87.254,13.407,87.254,19.353"/>
				<path id="Fill-50" sketch:type="MSShapeGroup" fill="#8E1C14" d="M84.92,15.168c-9.033-0.246-18.067-0.536-27.096-0.901
					c-8.18-0.329-16.424-1.323-24.614-0.811c-0.567,1.801-0.884,3.778-0.884,5.896c0,10.56,7.788,17.704,15.943,16.228l32.364-4.262
					c3.83-0.693,6.621-6.019,6.621-11.966c0-1.435-0.164-2.833-0.465-4.136C86.166,15.197,85.543,15.186,84.92,15.168"/>
			</g>
			<g id="Group-55" transform="translate(35.065637, 164.377551)">
				<g id="Clip-54">
				</g>
				<defs>
					<filter id="Adobe_OpacityMaskFilter_6_" filterUnits="userSpaceOnUse" x="-1.703" y="0.346" width="33.715" height="38.013">
						<feColorMatrix  type="matrix" values="1 0 0 0 0  0 1 0 0 0  0 0 1 0 0  0 0 0 1 0"/>
					</filter>
				</defs>
				<mask maskUnits="userSpaceOnUse" x="-1.703" y="0.346" width="33.715" height="38.013" id="mask-14">
					<g filter="url(#Adobe_OpacityMaskFilter_6_)">
						<path id="path-13" fill="#FFFFFF" d="M0.33,19.353c0,12.223,9.017,20.494,18.458,18.781l0,0l37.463-4.93
							c4.433-0.811,7.666-6.969,7.666-13.854l0,0c0-6.881-3.232-13.049-7.666-13.852l0,0L18.788,0.571
							c-0.833-0.152-1.661-0.224-2.481-0.224l0,0C7.828,0.347,0.33,8.207,0.33,19.353"/>
					</g>
				</mask>
				<path id="Fill-53" sketch:type="MSShapeGroup" mask="url(#mask-14)" fill="#CDCBCB" d="M32.012,19.353
					c0,12.445-7.609,19.006-16.919,19.006c-9.311,0-16.796-6.561-16.796-19.006c0-12.444,6.607-19.007,15.918-19.007
					C23.525,0.346,32.012,6.909,32.012,19.353"/>
			</g>
			<g id="Group-63" transform="translate(35.065637, 164.377551)">
				<path id="Fill-56" sketch:type="MSShapeGroup" fill="#E7E7E7" d="M26.023,19.783c0,10.396-5.807,18.627-12.971,18.396
					C5.89,37.935,0.083,29.318,0.083,18.921c0-10.393,5.807-18.628,12.969-18.39C20.216,0.767,26.023,9.388,26.023,19.783"/>
				<path id="Fill-58" sketch:type="MSShapeGroup" fill="#13110D" d="M21.993,19.353c0,7.541-4.004,13.65-8.941,13.65
					c-4.938,0-8.94-6.109-8.94-13.65c0-7.54,4.003-13.652,8.94-13.652C17.99,5.701,21.993,11.813,21.993,19.353"/>
				<g id="Group-62" transform="translate(5.536680, 7.387755)">
					<g id="Clip-61">
					</g>
					<defs>
						<filter id="Adobe_OpacityMaskFilter_7_" filterUnits="userSpaceOnUse" x="0.696" y="0.548" width="10.633" height="15.603">
							<feColorMatrix  type="matrix" values="1 0 0 0 0  0 1 0 0 0  0 0 1 0 0  0 0 0 1 0"/>
						</filter>
					</defs>
					<mask maskUnits="userSpaceOnUse" x="0.696" y="0.548" width="10.633" height="15.603" id="mask-16">
						<g filter="url(#Adobe_OpacityMaskFilter_7_)">
							<path id="path-15" fill="#FFFFFF" d="M0.697,16.151h10.632V0.547H0.697V16.151"/>
						</g>
					</mask>
					<path id="Fill-60" sketch:type="MSShapeGroup" mask="url(#mask-16)" fill="#775E7E" d="M7.915,8.308
						c0.011-0.01,0.021-0.019,0.032-0.026c0.606-0.423,1.964-1.289,3.382-2.183c-0.546-2.732-1.96-4.974-3.91-5.551
						C7.377,0.552,7.335,0.552,7.295,0.555C3.358,1.011,0.504,6.747,0.706,12.051c0.061,1.615,0.402,3.002,0.917,4.1
						C2.621,13.599,4.7,10.836,7.915,8.308"/>
				</g>
			</g>
			<g id="Group-66" transform="translate(46.138996, 179.153061)">
				<g id="Clip-65">
				</g>
				<defs>
					<filter id="Adobe_OpacityMaskFilter_8_" filterUnits="userSpaceOnUse" x="31.345" y="1.875" width="79.875" height="51.046">
						<feColorMatrix  type="matrix" values="1 0 0 0 0  0 1 0 0 0  0 0 1 0 0  0 0 0 1 0"/>
					</filter>
				</defs>
				<mask maskUnits="userSpaceOnUse" x="31.345" y="1.875" width="79.875" height="51.046" id="mask-18">
					<g filter="url(#Adobe_OpacityMaskFilter_8_)">
						<path id="path-17" fill="#FFFFFF" d="M0.475,8.756L47.23,71.482c0,8.863,33.357,7.221,46.016,7.221l0,0
							c12.658,0,22.922-3.062,22.922-11.933l0,0v-50.44c0-8.862-10.264-16.047-22.922-16.047l0,0c-1.008,0-2.443-0.003-4.236-0.003
							l0,0C68.328,0.274,0.475,0.598,0.475,8.756"/>
					</g>
				</mask>
				<path id="Fill-64" sketch:type="MSShapeGroup" mask="url(#mask-18)" fill="#491B16" d="M68.011,52.921
					c-25.081,0-36.183-44.236-36.666-46.213l7.3-1.789c3.002,12.254,14.61,43.373,32.006,40.238
					c26.088-4.688,33.101-42.896,33.17-43.282l7.399,1.305c-0.077,0.44-1.967,10.946-7.572,22.233
					C95.992,40.825,85.043,50.212,71.98,52.56C70.619,52.804,69.297,52.921,68.011,52.921"/>
			</g>
			<g id="Group-85" transform="translate(26.760618, 32.321429)" sketch:type="MSShapeGroup">
				<path id="Stroke-67" fill="none" stroke="#CDCBCB" stroke-width="2.446" stroke-linecap="round" d="M49.045,153.29h11.38"/>
				<path id="Fill-69" fill="#EB619F" d="M105.497,146.942L97.36,161.2l14.035-2.129c0,0-2.826-3.299-4.818-6.736
					C105.335,150.19,105.497,146.942,105.497,146.942"/>
				<path id="Fill-71" fill="#EB619F" d="M122.944,146.514l4.437,14.595l-15.985-2.037c0,0,4.055-2.144,7.524-5.543
					C121.609,150.897,122.944,146.514,122.944,146.514"/>
				<path id="Fill-73" fill="#F4BF92" d="M105.497,146.895l-8.137,14.259l14.035-2.13c0,0-2.826-3.297-4.818-6.735
					C105.335,150.143,105.497,146.895,105.497,146.895"/>
				<path id="Fill-75" fill="#F4BF92" d="M122.944,146.467l4.437,14.596l-15.985-2.039c0,0,4.055-2.146,7.524-5.543
					C121.609,150.852,122.944,146.467,122.944,146.467"/>
				<path id="Fill-77" fill="#F18900" d="M110.11,186.995c-5.479,0-10.207,1.172-12.752,5.262l15.912,0.414l0.023,13.61
					l-15.938,0.026c2.559,4.047,7.311,5.057,12.752,5.057c8.146,0,9.801-4.383,9.801-11.9
					C119.911,191.944,118.261,186.995,110.11,186.995"/>
				<path id="Fill-79" fill="#D75829" d="M175.448,80.944c1.809-7.354,2.541-14.98,1.916-22.639
					c-3.121-38.344-38.553-62.874-72.576-56.946C70.763,7.29,45.713,43.18,48.836,81.525c2.805,34.416,27.355,59.093,56.958,59.503
					l-0.459,9.162c0,2.629,6.061,8.881,6.061,8.881s11.551-6.252,11.551-8.881v-11.618c9.904-2.993,19.312-8.585,27.438-15.976
					c3.021-2.749,5.867-5.746,8.498-8.95c7.938,1.285,16.722-2.979,21.192-14.999c0.693-1.864,1.13-3.582,1.347-5.157
					C182.325,86.901,179.386,82.811,175.448,80.944"/>
				<path id="Fill-81" fill="#D75829" d="M157.775,210.977l-5.147-4.448c-0.392-3.571-2.239-6.966-5.408-9.188
					c-3.635-2.546-7.812-3.07-11.669-1.604c0,0,0.003,5.434,0,10.686c-0.002,3.665,0.066,7.242-0.203,8.82
					c-0.511,2.93-1.706,3.986-1.706,3.986l1.623,6.744c0.603,2.492,3.104,4.024,5.597,3.428c2.485-0.6,4.021-3.104,3.422-5.6
					l-0.445-1.855l1.361,2.625c1.178,2.273,3.977,3.16,6.25,1.98c2.271-1.182,3.162-3.979,1.979-6.255l-0.898-1.739
					c1.877,1.033,4.281,0.655,5.74-1.037C159.935,215.579,159.716,212.651,157.775,210.977"/>
				<path id="Fill-83" fill="#D75829" d="M20.529,123.965c-0.98-0.402-2.014-0.43-2.963-0.173c-0.354-1.887-1.846-3.436-3.852-3.736
					c-2.139-0.322-4.143,0.885-4.945,2.791c-1.096-1.22-2.792-1.835-4.5-1.43c-2.494,0.587-4.035,3.087-3.445,5.583l0.231,0.986
					l21.657,2.85l0.334-0.809C24.022,127.654,22.894,124.943,20.529,123.965"/>
			</g>
			<g id="Group-88" transform="translate(74.745174, 32.321429)">
				<g id="Clip-87">
				</g>
				<defs>
					<filter id="Adobe_OpacityMaskFilter_9_" filterUnits="userSpaceOnUse" x="-8.842" y="0.772" width="107.898" height="133.958">
						<feColorMatrix  type="matrix" values="1 0 0 0 0  0 1 0 0 0  0 0 1 0 0  0 0 0 1 0"/>
					</filter>
				</defs>
				<mask maskUnits="userSpaceOnUse" x="-8.842" y="0.772" width="107.898" height="133.958" id="mask-20">
					<g filter="url(#Adobe_OpacityMaskFilter_9_)">
						<path id="path-19" fill="#FFFFFF" d="M56.804,1.36C22.778,7.29-2.273,43.181,0.85,81.527l0,0
							c3.125,38.339,33.24,64.619,67.266,58.692l0,0c34.021-5.932,59.072-41.821,55.949-80.167l0,0
							C121.239,25.346,96.3,0.525,66.36,0.525l0,0C63.222,0.525,60.03,0.799,56.804,1.36"/>
					</g>
				</mask>
				
					<path id="Fill-86" sketch:type="MSShapeGroup" opacity="0.3" mask="url(#mask-20)" fill="#FEFEFE" enable-background="new    " d="
					M99.056,66.041c-3.461,31.621-18.638,67.332-50.354,68.645c-31.109,1.285-54.494-25.93-56.014-61.574
					C-8.871,36.528-15.194,3.469,17.4,0.772C48.659,40.555,99.039,28.109,99.056,66.041"/>
			</g>
			<g id="Group-122">
				<path id="Fill-89" sketch:type="MSShapeGroup" opacity="0.3" fill="#F8F8F9" enable-background="new    " d="M199.057,115.422
					c-4.375-1.587-9.463,0.433-9.463,0.433c-0.012,0.08-2.24,13.044-9.018,23.773c0,0,10.904,7.975,19.818-6.971
					C204.426,125.903,205.41,117.727,199.057,115.422"/>
				<path id="Fill-91" sketch:type="MSShapeGroup" fill="#E20D14" d="M235.389,147.275c-0.214-0.468-0.467-0.938-0.748-1.407
					l-0.012-0.022h-0.004c-4.255-7.078-16.116-14.547-26.443-20.034c0,0-1.146,9.092-7.703,15.313
					c-7.053,6.699-14.836,4.844-14.836,4.844c-2.664,3.446-8.498,8.949-8.498,8.949c-0.883,6.116-0.74,11.801,1.282,15.976
					c7.359,15.19,19.399,19.696,29.843,19.59c0.455-0.006,0.904-0.021,1.354-0.039c3.58-0.172,6.938-0.869,9.797-1.84
					c1.041-0.354,2.106-0.819,3.187-1.396C232.988,181.666,243.98,166.103,235.389,147.275"/>
				<g id="Group-95">
					<g id="Clip-94">
					</g>
					<defs>
						
							<filter id="Adobe_OpacityMaskFilter_10_" filterUnits="userSpaceOnUse" x="92.359" y="0.018" width="129.408" height="113.634">
							<feColorMatrix  type="matrix" values="1 0 0 0 0  0 1 0 0 0  0 0 1 0 0  0 0 0 1 0"/>
						</filter>
					</defs>
					<mask maskUnits="userSpaceOnUse" x="92.359" y="0.018" width="129.408" height="113.634" id="mask-22">
						<g filter="url(#Adobe_OpacityMaskFilter_10_)">
							<path id="path-21" fill="#FFFFFF" d="M0,0.019h238.477V362H0"/>
						</g>
					</mask>
					<path id="Fill-93" sketch:type="MSShapeGroup" mask="url(#mask-22)" fill="#E20D14" d="M179.661,73.291
						c-2.679,15.354,1.497,34.102,11.485,36.787c2.188,0.586,7.836,0.119,11.051,0.942c2.373,0.61,4.572,9.858,14.922-10.396
						c13.021-25.486-3.895-40.182-19.1-45.841c-4.203-7.913-13.047-22.99-23.836-32.409C143.816-4.151,111.773-4.972,99.391,8.958
						c-18.168,20.438,0.153,47.834,40.158,52.488c17.264,2.007,30.715,3.388,42.594,2.467
						C181.104,66.595,180.279,69.745,179.661,73.291"/>
				</g>
				<path id="Fill-96" sketch:type="MSShapeGroup" opacity="0.5" fill="#FEFEFE" enable-background="new    " d="M164.377,14.897
					c0,0-24.812-18.665-48.993-14.184c0,0-5.962,0.645-11.827,4.568c-4.31,2.884-8.498,7.578-10.58,14.887
					c0,0,14.919,12.419,37.815,10.477C153.609,28.711,160.645,19.54,164.377,14.897"/>
				<path id="Fill-98" sketch:type="MSShapeGroup" opacity="0.2" fill="#FEFEFE" enable-background="new    " d="M164.377,14.897
					c0,0,10.537,7.355,14.438,12.213c0,0-13.371,23.961-43.922,23.975c-19.146,0.009-36.146-7.531-40.188-14.549
					c-2.765-4.799-3.006-10.779-1.721-16.368c0,0,14.919,12.419,37.815,10.477C153.609,28.711,160.645,19.54,164.377,14.897"/>
				<path id="Fill-100" sketch:type="MSShapeGroup" fill="#13110D" d="M114.451,138.838c-2.465,0-4.243-0.213-4.427-0.236
					c-1.128-0.142-1.927-1.169-1.787-2.297c0.141-1.129,1.166-1.924,2.296-1.792c2.828,0.349,11.031,0.609,14.975-2.35
					c0.91-0.682,2.199-0.499,2.883,0.412c0.686,0.911,0.498,2.203-0.412,2.884C124.219,138.28,118.436,138.838,114.451,138.838"/>
				<path id="Fill-102" sketch:type="MSShapeGroup" fill="#13110D" d="M168.541,82.303c-0.447,0-0.9-0.147-1.279-0.448
					c-16.078-12.808-35.938-6.897-36.138-6.837c-1.083,0.336-2.237-0.274-2.573-1.359c-0.334-1.085,0.27-2.238,1.355-2.576
					c0.892-0.278,22.102-6.644,39.919,7.548c0.889,0.708,1.036,2.004,0.329,2.895C169.748,82.037,169.146,82.303,168.541,82.303"/>
				<path id="Fill-104" sketch:type="MSShapeGroup" fill="#13110D" d="M117.138,70.991c-0.595,0-1.186-0.257-1.594-0.754
					c-5.477-6.695-10.911-10.304-16.15-10.723c-4.872-0.399-7.797,2.167-7.919,2.275c-0.845,0.751-2.145,0.683-2.9-0.158
					c-0.755-0.841-0.698-2.129,0.135-2.893c0.172-0.155,4.262-3.818,10.885-3.34c6.44,0.465,12.878,4.58,19.136,12.229
					c0.721,0.881,0.59,2.178-0.289,2.899C118.059,70.838,117.598,70.991,117.138,70.991"/>
				<path id="Fill-106" sketch:type="MSShapeGroup" fill="#FEFEFE" d="M144.955,86.778c-9.585-1.36-18.49,5.336-19.85,14.927
					c-1.36,9.591,5.332,18.502,14.914,19.862c9.586,1.36,18.484-5.334,19.849-14.927C161.23,97.05,154.539,88.14,144.955,86.778"/>
				<path id="Fill-108" sketch:type="MSShapeGroup" fill="#FEFEFE" d="M99.519,75.384c-8.318-1.181-16.188,5.661-17.55,15.254
					c-1.359,9.589,4.3,18.353,12.616,19.534c8.317,1.18,16.189-5.662,17.55-15.252C113.492,85.33,107.835,76.565,99.519,75.384"/>
				<path id="Fill-110" sketch:type="MSShapeGroup" opacity="0.5" fill="#FEFEFE" enable-background="new    " d="M120.219,80.287
					c-7.996,32.765,2.118,46.286,20.504,49.466c23.096,3.998,33.252-13.243,37.282-39.689L120.219,80.287z"/>
				<path id="Fill-112" sketch:type="MSShapeGroup" fill="#13110D" d="M152.229,105.492c-0.453,3.207-3.42,5.439-6.623,4.983
					c-3.205-0.456-5.436-3.424-4.979-6.63c0.453-3.209,3.421-5.438,6.625-4.982C150.457,99.317,152.684,102.286,152.229,105.492"/>
				<path id="Fill-114" sketch:type="MSShapeGroup" fill="#417A3A" d="M147.068,125.944c-1.758,0-3.646-0.173-5.604-0.511
					c-7.427-1.285-12.568-4.254-15.729-9.078c-3.582-5.472-4.693-13.541-3.346-24.05c0.57-2.19,1.088-4.516,1.543-6.975
					l50.146,4.311C169.965,114.359,160.58,125.944,147.068,125.944L147.068,125.944z M107.081,104.979
					c-3.528,4.67-7.9,6.94-13.361,6.94c-2.675,0-5.66-0.542-8.878-1.614c-6.02-2.005-10.158-7.235-12.305-15.544
					c-1.009-3.91-1.86-9.691-1.988-15.695l8.229,5.04c0,0,2.593-7.622,3.339-9.116c0.489-0.978,1.718-3.448,2.509-5.038
					l30.432,13.309c-0.344,1.633-0.637,3.219-0.891,4.769C112.446,95.306,110.08,101.005,107.081,104.979L107.081,104.979z
					 M72.087,64.469l0.794,0.348l-0.819-0.246C72.072,64.538,72.078,64.502,72.087,64.469L72.087,64.469z M181.814,93.869
					c0.182-1.031,0.354-2.073,0.521-3.145l1.353-9.319l-61.692-5.656l-55.85-25.928l-1.938,11.816
					c-0.04,0.191-0.066,0.377-0.106,0.569l-5.847-1.739l-1.258,10.298l5.38,3.294c-0.732,8.471-0.267,16.272,1.46,22.953
					c2.913,11.292,9.198,18.841,18.168,21.832c4.135,1.378,8.076,2.075,11.718,2.075c8.272,0,15.124-3.473,20.372-10.311
					c0.878,3.972,2.311,7.485,4.318,10.552c4.492,6.87,11.756,11.214,21.562,12.913c2.448,0.424,4.834,0.638,7.092,0.638
					c10.336,0,18.646-4.389,24.689-13.045c3.225-4.616,5.799-10.421,7.779-17.558L193,112.651c0,0,5.158-1.952,10.432,1.28
					c4.428,2.762,4.842,8.284,4.842,8.284l8.295,5.391l6.461-17.953L181.814,93.869z"/>
				<path id="Fill-116" sketch:type="MSShapeGroup" opacity="0.5" fill="#FEFEFE" enable-background="new    " d="M115.052,83.257
					c-0.485,2.51-0.793,4.47-1.27,6.396c-2.594,10.518-5.265,13.414-8.361,17.201c-0.897,1.096-2.173,2.533-3.399,3.074
					c-2.081,0.918-5.873,2.316-8.652,1.988c-3.111-0.367-4.34-0.028-8.526-1.612c-9.558-3.612-12.074-11.211-13.932-24.282
					c-0.887-6.232-0.476-13.657,1.177-21.554L115.052,83.257z"/>
				<path id="Fill-118" sketch:type="MSShapeGroup" fill="#13110D" d="M109.239,94.749c-0.454,3.207-3.421,5.438-6.625,4.983
					c-3.207-0.456-5.436-3.425-4.978-6.632c0.454-3.206,3.419-5.438,6.624-4.983C107.463,88.573,109.692,91.542,109.239,94.749"/>
				<path id="Fill-120" sketch:type="MSShapeGroup" fill="#D75829" d="M113.741,108.886l-5.802-1.531
					c-4.553-1.188-8.887,1.491-9.69,5.782c-0.768,4.107,1.993,8.247,6.179,9.42l5.997,1.707c3.713,1.042,5.928-1.138,7.227-4.33
					C117.854,119.437,115.836,118.639,113.741,108.886"/>
			</g>
		</g>
	</g>
</g>
</svg>
