<svg id="Layer_1" data-name="Layer 1" xmlns="http://www.w3.org/2000/svg" xmlns:xlink="http://www.w3.org/1999/xlink" viewBox="0 0 643.01 623.59"><defs><clipPath id="clip-path" transform="translate(-329.99 -26.57)"><polygon points="493.15 412.29 474.99 411.93 476.75 387.2 489.66 382.08 493.15 412.29" style="fill:none"/></clipPath><clipPath id="clip-path-2" transform="translate(-329.99 -26.57)"><path d="M542,262.51c-11.17,47.95-37.79,83.2-94.41,74.61-58.35-8.85-69.88-51.5-60.38-101.77,9.77-51.7,37.75-90.7,98.49-78.52C544.57,168.65,553.49,213.26,542,262.51Z" style="fill:none"/></clipPath><clipPath id="clip-path-3" transform="translate(-329.99 -26.57)"><path d="M511.8,142.31a172.83,172.83,0,0,0-43.19-16.54,21.5,21.5,0,0,0-3.07-11.39c-6.65-11-21.88-13.82-34-6.33l-.44.3c-10.88-9.42-28.23-8.34-40,2.93-12.49,12-14,30.83-3.31,42.16.3.32.63.59.94.89-4.73,11.86,1.8,25.81,14.92,31.48a27.56,27.56,0,0,0,24.2-.82,28.07,28.07,0,0,0,12.36,10.26c9.65,4.17,20.2,2.7,27.34-2.93a28.26,28.26,0,0,0,38.92,13.85c26.8,12.55,52.56,20.69,60.28,8C577.46,196.59,552.87,164.4,511.8,142.31Z" style="fill:none"/></clipPath><clipPath id="clip-path-4" transform="translate(-329.99 -26.57)"><path d="M433.86,419.74v-44A13.13,13.13,0,0,1,447,362.55H487.1a13.13,13.13,0,0,1,13.12,13.15v44" style="fill:none"/></clipPath></defs><title>poppetje met koffer</title><path d="M642.28,614.82l55.64,33.84L901,542a12.39,12.39,0,0,0,11.1-12.32l55-130.66L916,379.47c-8.27-3.76-14-5.21-21.32-4.44L642.23,401.66A12.39,12.39,0,0,0,631.13,414V597.92C631.13,605.27,634,610.31,642.28,614.82Z" transform="translate(-329.99 -26.57)" style="fill:#b34e00"/><path d="M633.52,406.29a7.58,7.58,0,0,0-2,4.08l-.42,2.53a4.93,4.93,0,0,0-.07.81V589.26c0,15.79,1.5,18,6,21.81,2.54,2.12,54.89,34.59,60.15,37.6,1.06.61,5.7-.16,6.77-.75l-9.78-215.05" transform="translate(-329.99 -26.57)" style="fill:#823703"/><path d="M741.18,616.28,929.5,581.14a9.08,9.08,0,0,0,8.14-9l-.55-132.43a9.08,9.08,0,0,0-10-9l-187.77,27a9.08,9.08,0,0,0-8.14,9V607.25A9.08,9.08,0,0,0,741.18,616.28Z" transform="translate(-329.99 -26.57)" style="fill:#b34e00"/><polyline points="600.65 358.54 326.95 390.12 326.95 597.28" style="fill:none;stroke:#963f04;stroke-miterlimit:10"/><path d="M746,616.33l183-34.78c5.73-1.31,8.74-4.7,8.74-9.69l-9,3.87L731,610.31l1.5,1.5,2.26,2.26A15.49,15.49,0,0,0,746,616.33Z" transform="translate(-329.99 -26.57)" style="fill:#ba5c1c"/><path d="M925.76,576.47s7.77,4.86,8.27,4.51c1.91-1.34,6-14.18,4.51-9L936.28,438a9.75,9.75,0,0,0-10.76-9.69Z" transform="translate(-329.99 -26.57)" style="fill:#a54707"/><path d="M972.25,409.15a12.39,12.39,0,0,0-13.67-12.32L702.38,428a12.39,12.39,0,0,0-11.1,12.32V637.77A12.39,12.39,0,0,0,705,650.09L961.9,602.16A12.39,12.39,0,0,0,973,589.84Zm-42.75,172L741.18,616.28a9.08,9.08,0,0,1-10-9V466.67a9.08,9.08,0,0,1,8.14-9l187.77-27a9.08,9.08,0,0,1,10,9l.55,132.43A9.08,9.08,0,0,1,929.5,581.14Z" transform="translate(-329.99 -26.57)" style="fill:#963f04"/><path d="M753.56,606.55s5.51,6.37,6,6c1.91-1.34,3,.13,3-2.37V469.61c7.89-10.3,12.78-18.71-11.28-13.45Z" transform="translate(-329.99 -26.57)" style="fill:#a54707"/><path d="M786.65,634.37l-.73-209.48a8.92,8.92,0,0,0-3.74-7.27l-55.68-25.38L696.42,396l57,27.78a8.92,8.92,0,0,1,3.57,7.14l2.63,208.71Z" transform="translate(-329.99 -26.57)" style="fill:#823703"/><circle cx="442.5" cy="478.85" r="3.38" style="fill:#6d2e03"/><polygon points="431.85 531.11 459.67 540.88 459.67 536.37 455.16 498.02 430.34 496.52 430.34 500.28 431.85 531.11" style="fill:#6d2e03"/><polygon points="434.1 528.1 458.92 536.13 459.67 536.37 455.91 496.52 430.34 496.52 434.1 528.1" style="fill:#823703"/><circle cx="442.5" cy="442.76" r="2.63" style="fill:#b34e00"/><circle cx="442.75" cy="461.55" r="3.38" style="fill:#b34e00"/><path d="M771.74,506.54h1.88a2.36,2.36,0,0,0,1.5-2.63V486.24c0-.75-1.53-1.24-2.07-1.44a1.09,1.09,0,0,0-.38-.07h-.35a2.41,2.41,0,0,0-2.42,2,7.78,7.78,0,0,0,0,1v16.92C769.86,505.7,769.86,506.54,771.74,506.54Z" transform="translate(-329.99 -26.57)" style="fill:#af8e02"/><path d="M879.14,584s5.51,6.37,6,6c1.91-1.34,3,.13,3-2.37V447.06c7.89-10.3,3-12.7-10.53-8.94Z" transform="translate(-329.99 -26.57)" style="fill:#a54707"/><path d="M779.88,493.76l-15,1.5a9,9,0,0,0-9,9v15a9,9,0,0,0,9,9l15-.75c5,0,9-4.81,9-9.78v-15A9,9,0,0,0,779.88,493.76Zm4.51,22c0,3.6-2.94,7.29-6.54,7.29l-11,.75a6.56,6.56,0,0,1-6.54-6.54v-11a6.56,6.56,0,0,1,6.54-6.54l11-.75c3.6,0,6.54,2.19,6.54,5.79Z" transform="translate(-329.99 -26.57)" style="fill:#af8e02"/><path d="M910.72,611.81l-.61-200.75a8.63,8.63,0,0,0-3.62-7L852.6,379.47l-29.11,3.64L878.62,410a8.63,8.63,0,0,1,3.46,6.91l2.33,199.43Z" transform="translate(-329.99 -26.57)" style="fill:#823703"/><circle cx="567.12" cy="460.16" r="3.27" style="fill:#6d2e03"/><polygon points="555.91 508.55 584.49 521.33 583.74 515.83 579.37 478.71 555.36 477.26 555.36 480.9 555.91 508.55" style="fill:#6d2e03"/><polygon points="559 507.82 583.01 515.59 583.74 515.83 580.1 477.26 555.36 477.26 559 507.82" style="fill:#823703"/><circle cx="567.12" cy="425.23" r="2.55" style="fill:#b34e00"/><circle cx="567.36" cy="443.42" r="3.27" style="fill:#b34e00"/><path d="M896.38,487.82h1.82a2.29,2.29,0,0,0,1.46-2.55v-17.1c0-.73-1.48-1.2-2-1.39a1.05,1.05,0,0,0-.37-.06h-.34a2.33,2.33,0,0,0-2.35,2,7.53,7.53,0,0,0,0,.93V486C894.56,487,894.56,487.82,896.38,487.82Z" transform="translate(-329.99 -26.57)" style="fill:#af8e02"/><path d="M904.26,475.45l-14.55,1.46a8.76,8.76,0,0,0-8.73,8.73v14.55a8.76,8.76,0,0,0,8.73,8.73l14.55-.73c4.8,0,8.73-4.66,8.73-9.46V484.18A8.76,8.76,0,0,0,904.26,475.45Zm4.37,21.32c0,3.48-2.85,7.06-6.33,7.06l-10.63.73a6.35,6.35,0,0,1-6.33-6.33V487.6a6.35,6.35,0,0,1,6.33-6.33l10.63-.73c3.48,0,6.33,2.12,6.33,5.6Z" transform="translate(-329.99 -26.57)" style="fill:#af8e02"/><polygon points="439.37 378.47 451.4 376.96 438.62 370.19 425.08 371.7 439.37 378.47" style="fill:#c9a200"/><polygon points="451.4 379.22 451.4 376.96 439.37 378.47 439.37 380.72 451.4 379.22" style="fill:#af8e02"/><polygon points="425.08 373.95 439.37 380.72 439.37 378.47 425.08 371.7 425.08 373.95" style="fill:#a08100"/><polygon points="501.78 372.45 513.81 370.95 501.02 364.93 487.49 365.68 501.78 372.45" style="fill:#c9a200"/><polygon points="513.81 373.2 513.81 370.95 501.78 372.45 501.78 374.71 513.81 373.2" style="fill:#af8e02"/><path d="M831.76,401.27l-20.63-5.58a14.75,14.75,0,0,0-2.77-.49,20.27,20.27,0,0,0-8.62,1.25,13.65,13.65,0,0,0-1.41.64l-16.94,8.69v-2.26l16.94-8.69a13.65,13.65,0,0,1,1.41-.64,20.27,20.27,0,0,1,8.62-1.25,14.75,14.75,0,0,1,2.77.49L831.76,399Z" transform="translate(-329.99 -26.57)" style="fill:#6d2e03"/><path d="M831.76,399l-20.3-5.26c-.91-.24-5.08.07-6,0-2.93-.21-4.77.47-7.52,1.5-.48.18-5.55,2.77-6,3l-10.53,5.26-12.78-6.77,16.94-8.69a13.65,13.65,0,0,1,1.41-.64,20.27,20.27,0,0,1,8.62-1.25,14.75,14.75,0,0,1,2.77.49L819,392.25Z" transform="translate(-329.99 -26.57)" style="fill:#823703"/><path d="M434.77,446.95c0-9.81-2.62-18.4-6.62-23.63l2.07-5.39-13.38.25c-7.88,1.83-10.35,14-10.58,29,0,3.29.7,7.21,4.82,7.17" transform="translate(-329.99 -26.57)" style="fill:#431113"/><path d="M437.37,448c0-8.41-2.62-15.86-6.64-20.42l2.06-4.72-13.4.22c-7.82,1.59-10.1,12.14-10.1,24.92,0,2.78.79,6.08,4.81,6.08" transform="translate(-329.99 -26.57)" style="fill:#431113"/><path d="M439.37,447.06c0-9.75-2.62-18.37-6.64-23.66l2.06-5.47-13.4.25c-7.82,1.85-10.09,14.07-10.09,28.88s2.27,27,10.09,28.88l13.4.25-2.06-5.47C436.75,465.43,439.37,456.81,439.37,447.06Z" transform="translate(-329.99 -26.57)" style="fill:#431113"/><path d="M445.69,447.06c0,16.09-2.1,29.13-10.9,29.13s-12.15-13-12.15-29.13,3.36-29.13,12.15-29.13S445.69,431,445.69,447.06Z" transform="translate(-329.99 -26.57)"/><path d="M441.2,375.48l-43.64,27S366.91,370.71,367,370.73" transform="translate(-329.99 -26.57)" style="fill:none;stroke:#fdd6b0;stroke-linecap:round;stroke-linejoin:round;stroke-width:10.9170687198639px"/><path d="M352.17,342.8c8.61,5.34,12.18,6.46,18.45,4.68a16.73,16.73,0,1,1-27.06,2.41C346.13,350.08,350,341.45,352.17,342.8Z" transform="translate(-329.99 -26.57)" style="fill:#f3865c"/><path d="M351.21,374.12a6,6,0,0,0,6.68-5.27h0a6,6,0,0,0-5.28-6.68l-12-1.41A6,6,0,0,0,334,366h0a6,6,0,0,0,5.28,6.68Z" transform="translate(-329.99 -26.57)" style="fill:#f3865c"/><path d="M362.76,355.88a6,6,0,0,0,6.55,5.44h0a6,6,0,0,0,5.44-6.55l-1.11-12a6,6,0,0,0-6.55-5.44h0a6,6,0,0,0-5.44,6.55Z" transform="translate(-329.99 -26.57)" style="fill:#f3865c"/><path d="M345.16,363a6,6,0,0,0,7.75-3.52h0a6,6,0,0,0-3.52-7.75l-11.27-4.23a6,6,0,0,0-7.75,3.52h0a6,6,0,0,0,3.52,7.75Z" transform="translate(-329.99 -26.57)" style="fill:#f3865c"/><path d="M350.2,355.36a6,6,0,0,0,8.16-2.44h0c1.58-2.93,9.8-2.31,6.87-3.89l-19.91-10a6,6,0,0,0-8.15,2.44h0a6,6,0,0,0,2.44,8.16Z" transform="translate(-329.99 -26.57)" style="fill:#f3865c"/><line x1="148.32" y1="384.24" x2="166.13" y2="384.24" style="fill:none"/><line x1="145" y1="385.36" x2="163.16" y2="385.72" style="fill:none;stroke:#7d7d7d;stroke-linecap:round;stroke-miterlimit:10;stroke-width:3.82097405195236px"/><g style="clip-path:url(#clip-path)"><line x1="154.25" y1="365.53" x2="154.25" y2="387.5" style="fill:none;stroke:#a51d38;stroke-linecap:round;stroke-linejoin:round;stroke-width:6.00438779592514px"/></g><line x1="157.22" y1="369.1" x2="157.22" y2="373.07" style="fill:none;stroke:#fff;stroke-linecap:round;stroke-miterlimit:10;stroke-width:3.27512061595917px"/><path d="M500.22,445.88c0,8.27-5.87,15-13.12,15H447c-7.25,0-13.12-6.71-13.12-15V396.44c0-8.27,5.87-15,13.12-15H487.1c7.25,0,13.12,6.71,13.12,15Z" transform="translate(-329.99 -26.57)" style="fill:#88371d"/><path d="M433.86,419.74v-44A13.13,13.13,0,0,1,447,362.55H487.1a13.13,13.13,0,0,1,13.12,13.15v44" transform="translate(-329.99 -26.57)" style="fill:#fdd6b0"/><path d="M487.1,362.55H462.68c-3.38,14.13-4.39,34.13-29,54.86l2.35,7.92,64.24-5.6v-44A13.13,13.13,0,0,0,487.1,362.55Z" transform="translate(-329.99 -26.57)" style="fill:#f6c092"/><path d="M454.52,446a7.52,7.52,0,0,0-7.63,7.41l-1.2,92.75-12.88,3.69-.61.2A10.07,10.07,0,0,0,439,569l18.92-6.76.49-.17a9.14,9.14,0,0,0,6-8.86l-2.51-99.92A7.53,7.53,0,0,0,454.52,446Z" transform="translate(-329.99 -26.57)" style="fill:#88371d"/><path d="M508.53,555.86,494.44,549l-8-92.09a7.52,7.52,0,0,0-15,1.15l4.7,97.83a9.13,9.13,0,0,0,4.57,7.37l.44.25,18,10.17.56.29a10.07,10.07,0,0,0,8.82-18.12Z" transform="translate(-329.99 -26.57)" style="fill:#88371d"/><path d="M450.13,498.05" transform="translate(-329.99 -26.57)" style="fill:none;stroke:#9e4d23;stroke-linecap:square;stroke-linejoin:round;stroke-width:19.1048702597618px"/><path d="M449.72,463.31" transform="translate(-329.99 -26.57)" style="fill:none;stroke:#9e4d23;stroke-linecap:square;stroke-linejoin:round;stroke-width:19.1048702597618px"/><path d="M487.81,496.27" transform="translate(-329.99 -26.57)" style="fill:none;stroke:#9e4d23;stroke-linecap:square;stroke-linejoin:round;stroke-width:19.1048702597618px"/><path d="M484.91,466.26" transform="translate(-329.99 -26.57)" style="fill:none;stroke:#9e4d23;stroke-linecap:square;stroke-linejoin:round;stroke-width:19.1048702597618px"/><rect x="433.65" y="417.54" width="66.5" height="18.47" transform="translate(-330.78 -25.7) rotate(-0.11)" style="fill:#431113"/><path d="M478.54,348.1c-16.18-2.11-22.5-18.3-20.14-36.41s12.51-31.3,28.69-29.18,27.38,18.51,25,36.63S494.71,350.21,478.54,348.1Z" transform="translate(-329.99 -26.57)"/><polygon points="31.59 168.28 101.02 194.86 89.59 214.17 27.51 182.29 31.59 168.28" style="fill:#a32922"/><path d="M429.1,169.77c-3.16-5.09-5.47-8.57-7.27-11.55C408,163.78,396,177.52,388.53,194c-9.9,21.8,7.84,51.8,11.23,40.48,3.48-11.63.42-1.05,10.32-22.85,4.93-10.87,16.12-24.75,23.69-36A35.86,35.86,0,0,1,429.1,169.77Z" transform="translate(-329.99 -26.57)"/><path d="M511,295.91c-20.21-8.78-21.26,6.59-6-34.87s37.85-70.2,58.52-62.59,11.8,66.48-3.44,107.93S544.32,310.39,511,295.91Z" transform="translate(-329.99 -26.57)"/><path d="M533.81,342.66c-17.9,1.38-29-11.63-31.29-28.08s5.07-30.13,23-31.51,34.27,10.84,36.57,27.3S551.71,341.28,533.81,342.66Z" transform="translate(-329.99 -26.57)"/><path d="M505.57,348c-16.18-2.11-22.5-18.3-20.14-36.41s12.51-31.3,28.69-29.18,27.38,18.51,25,36.63C537.37,332.59,526,350.7,505.57,348Z" transform="translate(-329.99 -26.57)"/><path d="M428.53,343.22c-16.18-2.11-22.5-18.3-20.14-36.41s12.51-31.3,28.69-29.18,27.38,18.51,25,36.63S444.71,345.34,428.53,343.22Z" transform="translate(-329.99 -26.57)"/><path d="M455.05,347.24c-16.18-2.11-22.5-18.3-20.14-36.41s12.51-31.3,28.69-29.18,27.37,18.51,25,36.63S471.23,349.35,455.05,347.24Z" transform="translate(-329.99 -26.57)"/><path d="M476.26,335.26c-6.44,3.36-12.46.83-19.33,2.52l-1.07,21.31c0,3.41.66,9.74,7,9.74s15.88-6.33,15.88-9.74v-20A4.84,4.84,0,0,0,476.26,335.26Z" transform="translate(-329.99 -26.57)" style="fill:#d8582a"/><path d="M544.84,265.41c-11.17,47.95-40.61,80.3-97.23,71.71-58.35-8.85-69.88-51.5-60.38-101.77,9.77-51.7,37.75-90.7,98.49-78.52C544.57,168.65,556.32,216.17,544.84,265.41Z" transform="translate(-329.99 -26.57)" style="fill:#d8582a"/><g style="clip-path:url(#clip-path-2)"><path d="M512.84,270.35c-20.6,54.94-63.58,67.69-116.77,43.57-54.86-24.88-54.72-70.21-32-117,23.26-47.89,60.74-78.17,116.5-49.53C534.58,175.08,532.12,218.92,512.84,270.35Z" transform="translate(-329.99 -26.57)" style="fill:#f3865c"/></g><path d="M554.82,214.26c-5.31,12-20.48,17.06-33.87,11.27S501,205.31,506.31,193.3s20.48-17.05,33.87-11.27S560.13,202.25,554.82,214.26Z" transform="translate(-329.99 -26.57)"/><path d="M511.8,142.31a172.83,172.83,0,0,0-43.19-16.54,21.5,21.5,0,0,0-3.07-11.39c-6.65-11-21.88-13.82-34-6.33l-.44.3c-10.88-9.42-28.23-8.34-40,2.93-12.49,12-14,30.83-3.31,42.16.3.32.63.59.94.89-4.73,11.86,1.8,25.81,14.92,31.48a27.56,27.56,0,0,0,24.2-.82,28.07,28.07,0,0,0,12.36,10.26c9.65,4.17,20.2,2.7,27.34-2.93a28.26,28.26,0,0,0,38.92,13.85c26.8,12.55,52.56,20.69,60.28,8C577.46,196.59,552.87,164.4,511.8,142.31Z" transform="translate(-329.99 -26.57)"/><g style="opacity:0.5"><path d="M369,204.12c-8,11.41-7.75,64.48,43,59.4,24.89-2.49,27.36-41.93,27.36-41.93s-14.2-12.71-32.09-17.25C387.39,199.27,375.28,195.27,369,204.12Z" transform="translate(-329.99 -26.57)" style="fill:#fff"/></g><g style="opacity:0.5"><path d="M521.51,242.53c3.35,13.79-24.2,58.87-66.62,35.67-30.36-16.6-13.16-56-13.16-56a140,140,0,0,1,48.18,3.92C517.79,233.33,518.8,231.38,521.51,242.53Z" transform="translate(-329.99 -26.57)" style="fill:#fff"/></g><path d="M476.69,232.46c-14-2.63-27.07,3.66-29.1,14s7.73,20.94,21.75,23.57,27.07-3.66,29.1-14S490.7,235.09,476.69,232.46Z" transform="translate(-329.99 -26.57)" style="fill:#fff"/><path d="M418.6,219.19c-10.36-5.28-21.71-3-25.62,6.43s1.46,21.06,11.8,26.11,21.62,1.64,25.53-7.46S428.84,224.41,418.6,219.19Z" transform="translate(-329.99 -26.57)" style="fill:#fff"/><path d="M566,219.64c-3.17-5.09-15.49-21.89-17.29-24.87-13.81,5.56-24.67,29.07-28.44,44C514.39,262,529.64,285,547,261.54c7.09-9.6,16.12-24.75,23.69-36A35.84,35.84,0,0,1,566,219.64Z" transform="translate(-329.99 -26.57)"/><path d="M586,203.16c-3.12,2.92-18.12,6.36-18.12,6.36s4.44-14.74,7.56-17.66A7.73,7.73,0,0,1,586,203.16Z" transform="translate(-329.99 -26.57)"/><path d="M583.6,220c-4.27,0-17.67-7.53-17.67-7.53s13.22-7.89,17.49-7.94A7.73,7.73,0,0,1,583.6,220Z" transform="translate(-329.99 -26.57)"/><path d="M424.58,296.18s8.15,2.25,15.82-4.62" transform="translate(-329.99 -26.57)" style="fill:none;stroke:#000;stroke-linecap:round;stroke-miterlimit:10;stroke-width:3.42132745878995px"/><polygon points="193.5 214.52 262.33 238.3 247.83 261.63 188.45 228.21 193.5 214.52" style="fill:#a32922"/><path d="M522.84,307.4c11.73,7.68,28.89,5,37.88-15,9.33-20.73-4.63-30.62-20.31-24.44A164.12,164.12,0,0,1,522.84,307.4Z" transform="translate(-329.99 -26.57)" style="fill:#d8582a"/><path d="M550.38,269.93c-5.36-2.06-12.46,4-12.46,4s-4.11,15-13.82,27.35c0,0,15.11,11.26,28-5.91C557.88,287.62,559,273.27,550.38,269.93Z" transform="translate(-329.99 -26.57)" style="fill:#f3865c"/><path d="M452.17,209.17s29.55-8.14,52.72,11.73" transform="translate(-329.99 -26.57)" style="fill:none;stroke:#000;stroke-linecap:round;stroke-miterlimit:10;stroke-width:3.42132745878995px"/><path d="M398.86,199.1s14.25-14.2,36.86,5" transform="translate(-329.99 -26.57)" style="fill:none;stroke:#000;stroke-linecap:round;stroke-miterlimit:10;stroke-width:3.42132745878995px"/><path d="M375.59,208.42l-.31.47c-.07.11-.06.1-.06.1h0v0l-.06.12c0,.09-.09.15-.13.25a13.92,13.92,0,0,0-.53,1.31,24,24,0,0,0-.87,3.31,40.94,40.94,0,0,0-.7,7.54,44.66,44.66,0,0,0,2.52,15.13,33.66,33.66,0,0,0,3.21,6.63,27.73,27.73,0,0,0,4.5,5.46,28.94,28.94,0,0,0,2.72,2.2,29.56,29.56,0,0,0,3,1.82,32.37,32.37,0,0,0,6.77,2.57,47.48,47.48,0,0,0,15.58,1h.13l-.14,0h.11l.28,0,.56-.06c.23,0,.26,0,.38-.05l.3,0c.46-.08,1-.2,1.48-.33a14.26,14.26,0,0,0,2.85-1.11,18.34,18.34,0,0,0,5.13-4.06,32.57,32.57,0,0,0,4.26-6.07,49.92,49.92,0,0,0,3.26-7.32,71.07,71.07,0,0,0,2.32-8c.32-1.36.62-2.74.87-4.12.13-.69.25-1.38.35-2.06l.15-1,.12-.92h0l1.93,4.7-.81-.59-.9-.64q-.92-.64-1.86-1.26c-1.25-.84-2.52-1.66-3.81-2.44a85.81,85.81,0,0,0-7.92-4.27,73.89,73.89,0,0,0-8.14-3.39c-1.37-.47-2.75-.9-4.12-1.28-.69-.19-1.37-.37-2.06-.53l-2.3-.53-9.35-2.17c-3.06-.7-6.06-1.34-8.86-1.75-1.4-.19-2.74-.35-4-.4a14.67,14.67,0,0,0-3.12.16,4.76,4.76,0,0,0-1.75.61,4.35,4.35,0,0,0-1.16,1.17Zm-11.35-7.58.05-.07a17.93,17.93,0,0,1,5.18-4.92,18.4,18.4,0,0,1,6.57-2.41,28.19,28.19,0,0,1,6.08-.32,49.29,49.29,0,0,1,5.44.6c3.47.57,6.73,1.32,9.92,2.11l9.42,2.4,2.38.61q1.29.34,2.55.72,2.53.77,5,1.72a83.89,83.89,0,0,1,9.42,4.34,98.77,98.77,0,0,1,8.78,5.31q2.12,1.44,4.18,3,1,.78,2,1.59l1,.83,1.08.92a5.54,5.54,0,0,1,1.93,4.56V222h0l-.11,1.33-.13,1.23c-.09.81-.2,1.61-.32,2.41q-.35,2.4-.82,4.76a83.54,83.54,0,0,1-2.44,9.41,62.62,62.62,0,0,1-3.78,9.22,43.69,43.69,0,0,1-5.76,8.69,31.26,31.26,0,0,1-8.56,7,27.13,27.13,0,0,1-5.28,2.21c-.93.27-1.82.5-2.79.68l-.77.13-.71.11-.56.07-.28,0-.28,0h-.15a60.63,60.63,0,0,1-19.91-1.08,43.87,43.87,0,0,1-9.79-3.57,42.78,42.78,0,0,1-4.55-2.72,42,42,0,0,1-4.15-3.32,41.16,41.16,0,0,1-6.76-8.06,47,47,0,0,1-4.56-9.24,58,58,0,0,1-3.43-19.74,54.32,54.32,0,0,1,.89-10.1,37.5,37.5,0,0,1,1.34-5.18,27.24,27.24,0,0,1,1.07-2.69c.1-.23.23-.46.34-.69l.18-.35.24-.42.25-.42.21-.35.31-.47Z" transform="translate(-329.99 -26.57)" style="fill:#a32922"/><path d="M430.07,255.26l-10.61-3.38c-7.84-2.48-15.36,1.71-16.47,9-1,7,4.2,13.86,11.43,15.67l9.8,2.49c6.64,1.66,9.81-2.63,11.56-8.83C437.62,263.74,437.22,257.51,430.07,255.26Z" transform="translate(-329.99 -26.57)" style="fill:#d8582a"/><path d="M475.44,290.44a55.9,55.9,0,0,1-23.35-7.15c-14.49-7.92-21.75-21.61-21-39.57a73.57,73.57,0,0,1,5.29-23.85,5.81,5.81,0,0,1,4.57-3.44,126.44,126.44,0,0,1,22.21-.37,149.52,149.52,0,0,1,28.19,4.42c4.79,1.24,8.86,2.22,12.13,3,16.23,3.93,20.59,5,23.66,17.65,1.91,7.84-2.74,20.46-11.3,30.68C509.59,279.33,496,291.71,475.44,290.44ZM445.9,227.66a62.24,62.24,0,0,0-3.18,16.85c-.48,13.27,4.55,22.89,15,28.58a44.41,44.41,0,0,0,18.48,5.74c15.45,1,25.92-8.65,30.78-14.47,7-8.39,9.69-17.28,8.91-20.47-1-4.26-1.48-4.82-2.08-5.22-1.7-1.13-6.2-2.22-13-3.88-3.31-.8-7.43-1.8-12.31-3.06a137.89,137.89,0,0,0-26-4.07A131.5,131.5,0,0,0,445.9,227.66Z" transform="translate(-329.99 -26.57)" style="fill:#a32922"/><circle cx="472.68" cy="250.97" r="8.13" transform="translate(-214.18 623.22) rotate(-76.14)"/><circle cx="417.95" cy="237.52" r="7.58" transform="translate(-242.75 559.85) rotate(-76.14)"/><polygon points="126.13 327.36 115.35 344.91 130.96 342.42 126.13 327.36" style="fill:#f6c092"/><path d="M493.57,376.9l33.72,41L558.12,389" transform="translate(-329.99 -26.57)" style="fill:none;stroke:#f6c092;stroke-linecap:round;stroke-linejoin:round;stroke-width:10.9170687198639px"/><path d="M576.58,362.81c-9.49,3.56-8.66,4.17-14.46,1.2A16.72,16.72,0,0,0,559,387.25c5.55,7.39,12.25,2.3,19.65-3.25,6-4.49,1.46-12.68-.89-19.39C575.2,364.31,579,361.91,576.58,362.81Z" transform="translate(-329.99 -26.57)" style="fill:#f3865c"/><path d="M568.22,375.22c-.71,2.39-3.87,3.56-7.06,2.62h0c-3.19-.95-5.19-3.65-4.49-6l2.57-8.66c.71-2.39,3.87-3.57,7.06-2.62h0c3.19.95,5.19,3.65,4.48,6Z" transform="translate(-329.99 -26.57)" style="fill:#f3865c"/><path d="M579.73,354.46c-9.14-5.35-11.47-18.94-5.19-30.35s18.77-16.32,27.91-11,11.47,18.94,5.19,30.34S588.87,359.81,579.73,354.46Z" transform="translate(-329.99 -26.57)" style="fill:#fff;opacity:0.5"/><path d="M580.3,359.39a19.89,19.89,0,0,1-2.68-1.31c-11.07-6.48-14.1-22.62-6.75-36,6.75-12.28,20.09-18.24,31-13.88a20,20,0,0,1,2.68,1.31c11.07,6.48,14.1,22.62,6.75,36C604.57,357.78,591.23,363.75,580.3,359.39ZM598.78,316c-7-2.79-15.85,1.56-20.57,10.13-5.18,9.42-3.55,20.5,3.64,24.7a11.62,11.62,0,0,0,1.55.76c7,2.8,15.85-1.56,20.57-10.13,5.18-9.42,3.55-20.5-3.63-24.7A11.61,11.61,0,0,0,598.78,316Z" transform="translate(-329.99 -26.57)"/><polygon points="253.75 330.08 233.81 373.87 222.45 367.83 246.57 326.26 253.75 330.08"/><path d="M575,373.11a6,6,0,0,1-3.65-7.69h0a6,6,0,0,1,7.69-3.65l6.2,1.8a6,6,0,0,1,3.65,7.69h0a6,6,0,0,1-7.69,3.65Z" transform="translate(-329.99 -26.57)" style="fill:#f3865c"/><path d="M570.84,382.63a6,6,0,0,1-3.65-7.69h0a6,6,0,0,1,7.69-3.65l8.87,2.69a6,6,0,0,1,3.65,7.69h0a6,6,0,0,1-7.69,3.65Z" transform="translate(-329.99 -26.57)" style="fill:#f3865c"/><path d="M567.23,390.88a6,6,0,0,1-3.65-7.69h0a6,6,0,0,1,7.69-3.65l6.2,1.8a6,6,0,0,1,3.65,7.69h0a6,6,0,0,1-7.69,3.65Z" transform="translate(-329.99 -26.57)" style="fill:#f3865c"/><path d="M572.74,372.07c.21,2.49-3,5-6.34,5.27h0c-3.31.28-6.16-1.52-6.37-4l-.75-9c-.21-2.49,2.31-4.73,5.62-5h0c3.31-.27,6.16,1.52,6.37,4Z" transform="translate(-329.99 -26.57)" style="fill:#f3865c"/><g style="clip-path:url(#clip-path-3)"><ellipse cx="112.91" cy="69.62" rx="103.56" ry="69.62" style="fill:#736180;opacity:0.4"/><ellipse cx="95.52" cy="77.28" rx="42.47" ry="28.55" style="fill:#736180;opacity:0.4"/></g><g style="clip-path:url(#clip-path-4)"><path d="M429.23,415.92c10.14-5.12,35.21-18.51,51.92-57.5l13.39.89S485,407,432.22,426.77C430.35,420.21,433.68,419.1,429.23,415.92Z" transform="translate(-329.99 -26.57)" style="fill:#431113"/></g><polygon points="148.74 326.47 156.11 345.98 130.96 342.42 148.74 326.47" style="fill:#eeab7b"/><path d="M461.33,409.77c-7.88,0-14.75,2.19-18.41,7.74l23,0,0,18.47L443,436c3.68,5.49,10.51,6.86,18.34,6.86,11.72,0,14.1-5.94,14.1-16.15S473,409.77,461.33,409.77Z" transform="translate(-329.99 -26.57)" style="fill:#f68c1e"/></svg>