<svg width="22" height="40" viewBox="0 0 22 40" xmlns="http://www.w3.org/2000/svg"><title>flesje</title><g fill="none" fill-rule="evenodd"><path d="M21.168 4.96l-3.224-1.813a.634.634 0 0 0-.925.378l-.907 3.39-.568-.223a.43.43 0 0 0-.554.23l-.41.994a.414.414 0 0 0 .236.54l.646.255-2.75 6.65-.944-.37c-1.4-.55-2.99.11-3.556 1.474l-7.13 17.25c-.565 1.366.113 2.92 1.513 3.47l5.787 2.278c1.4.55 2.99-.11 3.556-1.475l7.13-17.25c.565-1.365-.11-2.918-1.51-3.47l-.968-.38 2.75-6.65.63.248a.43.43 0 0 0 .555-.23l.41-.993a.412.412 0 0 0-.236-.542l-.62-.243 1.34-2.715a.61.61 0 0 0-.252-.8" fill="#307078"/><path d="M14.76 6.742l3.565 1.403 2.31-4.68a.608.608 0 0 0-.252-.8L17.16.85a.634.634 0 0 0-.926.38L14.76 6.742z" fill="#9B562F"/><path d="M20.383 2.665l-1.314-.74a3.72 3.72 0 0 1-.745 1.737 4.95 4.95 0 0 1-.517.526c.067-.043.034-.012-.19.167.067-.053.127-.112.19-.167-.156.1-.848.6-1.056.658l-.27.078a4.202 4.202 0 0 1-1.31.28l-.41 1.538 3.563 1.402 2.31-4.678a.61.61 0 0 0-.252-.8" fill="#7A3714"/><path d="M16.773 14.973l-.967-.38 2.75-6.65.63.247a.43.43 0 0 0 .555-.23l.41-.994a.412.412 0 0 0-.236-.542L14.76 4.396a.43.43 0 0 0-.554.23l-.412.994a.414.414 0 0 0 .238.542l.646.253-2.75 6.65-.944-.37c-1.4-.552-2.992.11-3.556 1.474L.298 31.42c-.566 1.364.112 2.917 1.512 3.468l5.788 2.278c1.4.55 2.99-.11 3.556-1.475l7.13-17.25c.565-1.364-.112-2.916-1.51-3.467" fill="#A6EEFF" opacity=".7"/><path d="M17.738 5.568L14.76 4.396a.43.43 0 0 0-.554.23l-.296.715c1.1.525 3.482.887 3.828.228" opacity=".5" fill="#FFF"/><path d="M12.864 17.116c-.996-.37-4.222-1.32-4.347 1.228-.072 1.45-.358 3.677-1.433 6.864-.812 2.41-2.045 4.483-2.62 5.414-.456.738-.43 2.135 1.874 2.904 2.14.713 3.438-.214 3.358-.986-.08-.772 1.007-5.205 1.766-7.355.76-2.15 1.975-3.927 2.734-5.527.432-.91.14-1.997-1.332-2.542" fill="#FFF"/><path d="M9.696 32.54c-.08-.772 1.007-5.205 1.766-7.356.76-2.15 1.975-3.925 2.735-5.526.057-.122.1-.247.13-.373-.8.924-2.55.92-3.665.583-1.725 4.53-2.98 9.206-5.228 13.26.254.144.55.28.904.398 2.14.713 3.438-.214 3.358-.986" fill="#D0C5D6"/><path d="M13.3 19.857c.373-.288.498-.673.49-.938-.012-.357-.246-.708-.68-1.015-.706-.502-2-.892-2.86-.648-.24.07-.39.26-.384.49.012.515.783 1.018 2.014 1.314.17.04.34-.06.382-.225a.306.306 0 0 0-.23-.373c-.912-.218-1.317-.49-1.466-.643.602-.098 1.574.157 2.174.584.26.184.414.38.42.534 0 .088-.05.28-.252.437-.302.233-.805.274-1.416.116-1.106-.287-2.117-.95-2.457-1.614-.13-.255-.152-.492-.064-.705.004-.007.002-.015.005-.023-.243.248-.226 2.08 1.687 2.72.22.075.44.16.667.22 1.037.268 1.643.023 1.97-.23" fill="#7F6D8C"/><path d="M14.336 7.244l-2.407 5.82-.946-.37c-1.4-.55-2.992.11-3.556 1.475L.298 31.42a2.58 2.58 0 0 0-.194 1.12c2.87-2.262 4.724-1.94 6.697-5.008 2.922-4.54 4.608-9.287 6.372-13.28.872-1.975 1.422-3.364 2.212-5.37-.456-.583-.272-1.288-1.048-1.638" fill-opacity=".5" fill="#FFF"/></g></svg>