<?xml version="1.0" encoding="UTF-8"?>
<svg width="342px" height="276px" viewBox="0 0 342 276" version="1.1" xmlns="http://www.w3.org/2000/svg" xmlns:xlink="http://www.w3.org/1999/xlink">
    <!-- Generator: Sketch 55.1 (78136) - https://sketchapp.com -->
    <title>Group 2</title>
    <desc>Created with Sketch.</desc>
    <g id="Page-1" stroke="none" stroke-width="1" fill="none" fill-rule="evenodd">
        <g id="guy" transform="translate(-696.000000, -265.000000)">
            <g id="Group-2" transform="translate(696.000000, 265.000000)">
                <path d="M11.25,239.989837 L66.89,273.829837 L269.97,167.169837 C276.27791,166.509493 281.068637,161.192217 281.07,154.849837 L336.07,24.1898371 L284.97,4.63983709 C276.7,0.879837088 270.97,-0.570162912 263.65,0.199837088 L11.2,26.8298371 C4.88447633,27.4909725 0.0911147281,32.8198087 0.0999876675,39.1698371 L0.0999876675,223.089837 C0.0999876675,230.439837 2.97,235.479837 11.25,239.989837 Z" id="Path" fill="#B34E00" fill-rule="nonzero"></path>
                <path d="M2.49,31.4598371 C1.42180205,32.583321 0.723764687,34.0073172 0.49,35.5398371 L0.07,38.0698371 C0.0244052923,38.3374493 0.000992366018,38.6083703 5.68434189e-14,38.8798371 L5.68434189e-14,214.429837 C5.68434189e-14,230.219837 1.5,232.429837 6,236.239837 C8.54,238.359837 60.89,270.829837 66.15,273.839837 C67.21,274.449837 71.85,273.679837 72.92,273.089837 L63.14,58.0398371" id="Path" fill="#823703" fill-rule="nonzero"></path>
                <path d="M110.15,241.449837 L298.47,206.309837 C303.083981,205.829626 306.594051,201.948713 306.61,197.309837 L306.06,64.8798371 C306.050612,62.3173844 304.95893,59.8781939 303.054261,58.1639919 C301.149592,56.4497899 298.609281,55.6201864 296.06,55.8798371 L108.29,82.8798371 C103.676019,83.3600486 100.165949,87.240961 100.15,91.8798371 L100.15,232.419837 C100.15,234.98752 101.23894,237.434769 103.144638,239.155614 C105.050336,240.87646 107.595531,241.709999 110.15,241.449837 Z" id="Path" fill="#B34E00" fill-rule="nonzero"></path>
                <polyline id="Path" stroke="#963F04" points="299.61 10.2798371 25.91 41.8598371 25.91 249.019837"></polyline>
                <path d="M114.97,241.499837 L297.97,206.719837 C303.7,205.409837 306.71,202.019837 306.71,197.029837 L297.71,200.899837 L99.97,235.479837 L101.47,236.979837 L103.73,239.239837 C107.049716,241.403028 111.072181,242.211816 114.97,241.499837 Z" id="Path" fill="#BA5C1C" fill-rule="nonzero"></path>
                <path d="M294.73,201.639837 C294.73,201.639837 302.5,206.499837 303,206.149837 C304.91,204.809837 309,191.969837 307.51,197.149837 L305.25,63.1698371 C305.247864,60.4095195 304.075801,57.7794617 302.024641,55.9322741 C299.973481,54.0850866 297.235468,53.1938956 294.49,53.4798371 L294.73,201.639837 Z" id="Path" fill="#A54707" fill-rule="nonzero"></path>
                <path d="M341.22,34.3198371 C341.218951,30.811694 339.730766,27.4684348 337.124795,25.1198208 C334.518825,22.7712067 331.039372,21.6374137 327.55,21.9998371 L71.35,53.1698371 C65.0420899,53.8301816 60.2499999,59.1474572 60.2499999,65.4898371 L60.2499999,262.939837 C60.2499999,266.457662 61.7444937,269.809844 64.3619265,272.160192 C66.9793594,274.51054 70.4725018,275.637457 73.97,275.259837 L330.87,227.329837 C337.17791,226.669493 341.97,221.352217 341.97,215.009837 L341.22,34.3198371 Z M298.47,206.319837 L110.15,241.449837 C107.600719,241.709488 105.060408,240.879884 103.155739,239.165682 C101.25107,237.45148 100.159388,235.01229 100.15,232.449837 L100.15,91.8398371 C100.165949,87.200961 103.676019,83.3200486 108.29,82.8398371 L296.06,55.8398371 C298.609281,55.5801864 301.149592,56.4097899 303.054261,58.1239919 C304.95893,59.8381939 306.050612,62.2773844 306.06,64.8398371 L306.610004,197.269837 C306.614504,201.924019 303.099177,205.828018 298.47,206.309837 L298.47,206.319837 Z" id="Shape" fill="#963F04" fill-rule="nonzero"></path>
                <path d="M122.53,231.719837 C122.53,231.719837 128.04,238.089837 128.53,237.719837 C130.44,236.379837 131.53,237.849837 131.53,235.349837 L131.53,94.7798371 C139.42,84.4798371 144.31,76.0698371 120.25,81.3298371 L122.53,231.719837 Z" id="Path" fill="#A54707" fill-rule="nonzero"></path>
                <path d="M155.62,259.539837 L154.89,50.0598371 C154.892646,47.1742122 153.499204,44.4655694 151.15,42.7898371 L95.47,17.4098371 L65.39,21.1698371 L122.39,48.9498371 C124.637988,50.634844 125.960787,53.2804423 125.96,56.0898371 L128.59,264.799837 L155.62,259.539837 Z" id="Path" fill="#823703" fill-rule="nonzero"></path>
                <circle id="Oval" fill="#6D2E03" fill-rule="nonzero" cx="141.46" cy="130.589837" r="3.38"></circle>
                <polygon id="Path" fill="#6D2E03" fill-rule="nonzero" points="130.81 182.849837 158.63 192.619837 158.63 188.109837 154.12 149.759837 129.3 148.259837 129.3 152.019837"></polygon>
                <polygon id="Path" fill="#823703" fill-rule="nonzero" points="133.06 179.839837 157.88 187.869837 158.63 188.109837 154.87 148.259837 129.3 148.259837"></polygon>
                <circle id="Oval" fill="#B34E00" fill-rule="nonzero" cx="141.46" cy="94.4998371" r="2.63"></circle>
                <circle id="Oval" fill="#B34E00" fill-rule="nonzero" cx="141.71" cy="113.289837" r="3.38"></circle>
                <path d="M140.71,131.709837 L142.59,131.709837 C143.660561,131.311671 144.292322,130.203982 144.09,129.079837 L144.09,111.409837 C144.09,110.659837 142.56,110.169837 142.02,109.969837 C141.898513,109.92406 141.769825,109.900354 141.64,109.899837 L141.29,109.899837 C140.100182,109.877588 139.072244,110.727123 138.87,111.899837 C138.848555,112.232826 138.848555,112.566849 138.87,112.899837 L138.87,129.819837 C138.83,130.869837 138.83,131.709837 140.71,131.709837 Z" id="Path" fill="#AF8E02" fill-rule="nonzero"></path>
                <path d="M248.11,209.169837 C248.11,209.169837 253.62,215.539837 254.11,215.169837 C256.02,213.829837 257.11,215.299837 257.11,212.799837 L257.11,72.2298371 C265,61.9298371 260.11,59.5298371 246.58,63.2898371 L248.11,209.169837 Z" id="Path" fill="#A54707" fill-rule="nonzero"></path>
                <path d="M148.85,118.929837 L133.85,120.429837 C128.879437,120.429837 124.85,124.459274 124.85,129.429837 L124.85,144.429837 C124.85,149.4004 128.879437,153.429837 133.85,153.429837 L148.85,152.679837 C153.85,152.679837 157.85,147.869837 157.85,142.899837 L157.85,127.899837 C157.83347,122.940994 153.808871,118.929837 148.85,118.929837 L148.85,118.929837 Z M153.36,140.929837 C153.36,144.529837 150.42,148.219837 146.82,148.219837 L135.82,148.969837 C132.212616,148.958856 129.290981,146.037221 129.28,142.429837 L129.28,131.429837 C129.290981,127.822453 132.212616,124.900819 135.82,124.889837 L146.82,124.139837 C150.42,124.139837 153.36,126.329837 153.36,129.929837 L153.36,140.929837 Z" id="Shape" fill="#AF8E02" fill-rule="nonzero"></path>
                <path d="M279.69,236.979837 L279.08,36.2298371 C279.071336,33.4496153 277.723779,30.843842 275.46,29.2298371 L221.57,4.63983709 L192.46,8.27983709 L247.59,35.1698371 C249.767789,36.7992413 251.050002,39.3599612 251.05,42.0798371 L253.38,241.509837 L279.69,236.979837 Z" id="Path" fill="#823703" fill-rule="nonzero"></path>
                <circle id="Oval" fill="#6D2E03" fill-rule="nonzero" cx="266.08" cy="111.899837" r="3.27"></circle>
                <polygon id="Path" fill="#6D2E03" fill-rule="nonzero" points="254.87 160.289837 283.45 173.069837 282.7 167.569837 278.33 130.449837 254.32 128.999837 254.32 132.639837"></polygon>
                <polygon id="Path" fill="#823703" fill-rule="nonzero" points="257.96 159.559837 281.97 167.329837 282.7 167.569837 279.06 128.999837 254.32 128.999837"></polygon>
                <circle id="Oval" fill="#B34E00" fill-rule="nonzero" cx="266.08" cy="76.9698371" r="2.55"></circle>
                <circle id="Oval" fill="#B34E00" fill-rule="nonzero" cx="266.32" cy="95.1598371" r="3.27"></circle>
                <path d="M265.35,112.989837 L267.17,112.989837 C268.209733,112.605272 268.824705,111.531178 268.63,110.439837 L268.63,93.3398371 C268.63,92.6098371 267.15,92.1398371 266.63,91.9498371 C266.511264,91.9078068 266.385934,91.887483 266.26,91.8898371 L265.92,91.8898371 C264.744188,91.867917 263.736356,92.7256464 263.57,93.8898371 C263.550838,94.199541 263.550838,94.5101332 263.57,94.8198371 L263.57,111.169837 C263.53,112.169837 263.53,112.989837 265.35,112.989837 Z" id="Path" fill="#AF8E02" fill-rule="nonzero"></path>
                <path d="M273.23,100.619837 L258.68,102.079837 C253.865389,102.096297 249.96646,105.995226 249.95,110.809837 L249.95,125.359837 C249.96646,130.174448 253.865389,134.073377 258.68,134.089837 L273.23,133.359837 C278.03,133.359837 281.96,128.699837 281.96,123.899837 L281.96,109.349837 C281.94354,104.535226 278.044611,100.636297 273.23,100.619837 L273.23,100.619837 Z M277.6,121.939837 C277.6,125.419837 274.75,128.999837 271.27,128.999837 L260.64,129.729837 C257.148595,129.718858 254.320979,126.891242 254.31,123.399837 L254.31,112.769837 C254.320979,109.278433 257.148595,106.450816 260.64,106.439837 L271.27,105.709837 C274.75,105.709837 277.6,107.829837 277.6,111.309837 L277.6,121.939837 Z" id="Shape" fill="#AF8E02" fill-rule="nonzero"></path>
                <polygon id="Path" fill="#C9A200" fill-rule="nonzero" points="138.33 30.2098371 150.36 28.6998371 137.58 21.9298371 124.04 23.4398371"></polygon>
                <polygon id="Path" fill="#AF8E02" fill-rule="nonzero" points="150.36 30.9598371 150.36 28.6998371 138.33 30.2098371 138.33 32.4598371"></polygon>
                <polygon id="Path" fill="#A08100" fill-rule="nonzero" points="124.04 25.6898371 138.33 32.4598371 138.33 30.2098371 124.04 23.4398371"></polygon>
                <polygon id="Path" fill="#C9A200" fill-rule="nonzero" points="200.74 24.1898371 212.77 22.6898371 199.98 16.6698371 186.45 17.4198371"></polygon>
                <polygon id="Path" fill="#AF8E02" fill-rule="nonzero" points="212.77 24.9398371 212.77 22.6898371 200.74 24.1898371 200.74 26.4498371"></polygon>
                <path d="M200.73,26.4398371 L180.1,20.8598371 C179.194386,20.6086302 178.266835,20.4445509 177.33,20.3698371 C174.400035,20.1569414 171.458805,20.5834537 168.71,21.6198371 C168.228269,21.8063188 167.757511,22.0199958 167.3,22.2598371 L150.36,30.9498371 L150.36,28.6898371 L167.3,19.9998371 C167.757511,19.7599958 168.228269,19.5463188 168.71,19.3598371 C171.458805,18.3234537 174.400035,17.8969414 177.33,18.1098371 C178.266835,18.1845509 179.194386,18.3486302 180.1,18.5998371 L200.73,24.1698371 L200.73,26.4398371 Z" id="Path" fill="#6D2E03" fill-rule="nonzero"></path>
                <path d="M200.73,24.1698371 L180.43,18.9098371 C179.52,18.6698371 175.35,18.9798371 174.43,18.9098371 C171.5,18.6998371 169.66,19.3798371 166.91,20.4098371 C166.43,20.5898371 161.36,23.1798371 160.91,23.4098371 L150.38,28.6698371 L137.6,21.8998371 L154.54,13.2098371 C154.997511,12.9699958 155.468269,12.7563188 155.95,12.5698371 C158.698805,11.5334537 161.640035,11.1069414 164.57,11.3198371 C165.506835,11.3945509 166.434386,11.5586302 167.34,11.8098371 L187.97,17.4198371 L200.73,24.1698371 Z" id="Path" fill="#823703" fill-rule="nonzero"></path>
            </g>
        </g>
    </g>
</svg>